<svg width="44" height="50" viewBox="0 0 44 50" fill="none" xmlns="http://www.w3.org/2000/svg">
<path d="M42.6833 35.8666C40.0052 32.965 36.7553 30.6493 33.1382 29.0655C29.5211 27.4817 25.6153 26.6641 21.6667 26.6641C17.718 26.6641 13.8122 27.4817 10.1951 29.0655C6.57801 30.6493 3.32809 32.965 0.65 35.8666C0.236528 36.3238 0.00523714 36.9169 0 37.5333V47.5333C0.00876408 48.1906 0.27602 48.8179 0.743914 49.2796C1.21181 49.7412 1.84269 50 2.5 50H40.8333C41.4964 50 42.1322 49.7366 42.6011 49.2678C43.0699 48.7989 43.3333 48.163 43.3333 47.5V37.5C43.32 36.8951 43.0893 36.3153 42.6833 35.8666V35.8666Z" fill="white"/>
<path d="M21.6665 23.3333C28.1099 23.3333 33.3332 18.11 33.3332 11.6667C33.3332 5.22334 28.1099 0 21.6665 0C15.2232 0 9.99988 5.22334 9.99988 11.6667C9.99988 18.11 15.2232 23.3333 21.6665 23.3333Z" fill="white"/>
</svg>
