<svg width="35" height="50" viewBox="0 0 35 50" fill="none" xmlns="http://www.w3.org/2000/svg">
<path d="M33.7118 44.3404L30.0386 36.615C29.248 34.9644 28.2261 33.7631 26.4618 34.4956L22.9814 35.8043C20.1952 37.1131 18.8069 35.8044 17.4089 33.8315L11.1423 19.3866C10.3517 17.736 10.7663 16.1831 12.5306 15.4506L17.3993 13.4777C19.1636 12.7355 18.884 11.1923 18.0934 9.54177L13.9189 1.66984C13.1283 0.0192693 11.5086 -0.381164 9.74434 0.351336C6.21574 1.8261 3.29453 4.1408 1.39526 7.56891C-0.918579 11.7588 0.238338 17.5895 0.701105 20.0409C1.16387 22.4924 2.78356 26.7897 4.87565 31.1945C6.96774 35.609 8.79952 39.0762 10.4481 41.0393C12.0871 43.0024 16.0206 48.3741 20.8893 49.5754C24.8807 50.552 29.1902 49.7316 32.7188 48.2569C34.4927 47.5537 34.4927 46.0008 33.7118 44.3404V44.3404Z" fill="white"/>
</svg>
