<svg width="181" height="40" viewBox="0 0 181 40" fill="none" xmlns="http://www.w3.org/2000/svg">
<path d="M56.3135 6.26359C55.9831 5.05286 55.3388 3.94909 54.4445 3.0622C53.5503 2.17532 52.4374 1.53627 51.2168 1.2087C46.7477 0 28.7629 0 28.7629 0C28.7629 0 10.7773 0.0366803 6.30895 1.24538C5.08832 1.57301 3.97553 2.21208 3.08137 3.09896C2.18722 3.98584 1.5429 5.08958 1.21259 6.30027C-0.139158 14.176 -0.663586 26.1761 1.24957 33.7364C1.57988 34.9471 2.2242 36.0508 3.11835 36.9377C4.01251 37.8246 5.1253 38.4637 6.34593 38.7913C10.8147 40 28.7998 40 28.7998 40C28.7998 40 46.785 40 51.2537 38.7913C52.4744 38.4637 53.5872 37.8246 54.4813 36.9377C55.3755 36.0508 56.0198 34.9471 56.3501 33.7364C57.7755 25.8498 58.215 13.8571 56.3131 6.26394L56.3135 6.26359Z" fill="#FF0000"/>
<path d="M23.0383 28.5717L37.9583 20.0004L23.0383 11.4287V28.5717Z" fill="white"/>
<path d="M173.014 11.612C174.971 11.612 176.449 11.9781 177.483 12.6739C178.517 13.3702 179.256 14.4688 179.699 15.971C180.142 17.4728 180.326 19.5237 180.326 22.1612V26.4472H170.835V27.7656L170.983 31.392C171.094 32.198 171.279 32.7841 171.574 33.1503C171.87 33.5167 172.349 33.6998 172.977 33.6998C173.827 33.6998 174.418 33.3703 174.713 32.7111C175.045 32.0516 175.193 30.9526 175.23 29.4508L180.142 29.7439C180.179 29.9636 180.179 30.2567 180.179 30.6228C180.179 32.9305 179.551 34.6524 178.258 35.7877C176.966 36.9231 175.193 37.5093 172.866 37.5093C170.06 37.5093 168.102 36.6303 166.994 34.9088C165.887 33.1869 165.296 30.4761 165.296 26.85V22.4176C165.421 16.1907 166.525 11.6301 173.014 11.612V11.612ZM104.729 12.0881V30.4398C104.729 31.5388 104.84 32.3447 105.099 32.8208C105.623 33.8391 106.982 33.5789 107.721 33.0772C108.147 32.7914 108.491 32.4 108.718 31.9419V12.0878H114.368V37.1061H109.936L109.456 34.0292H109.346C108.127 36.3369 106.317 37.5089 103.917 37.5089C100.222 37.4998 99.3182 34.8596 99.103 32.1781L99.089 31.9891C99.0624 31.5829 99.0467 31.1762 99.0421 30.7692V12.0881H104.729H104.729ZM133.868 12.0881V30.4398C133.868 31.5388 133.978 32.3447 134.237 32.8208C134.762 33.8391 136.12 33.5789 136.859 33.0772C137.285 32.7914 137.629 32.4 137.856 31.9419V12.0878H143.506V37.1061H139.075L138.595 34.0292H138.484C137.265 36.3369 135.456 37.5089 133.055 37.5089C129.361 37.4998 128.457 34.8596 128.241 32.1781L128.227 31.9891C128.201 31.5829 128.185 31.1762 128.18 30.7692V12.0881H133.868ZM88.332 11.612C90.1786 11.612 91.6927 11.9781 92.8007 12.7473C93.9084 13.5165 94.7579 14.6889 95.275 16.3004C95.792 17.9122 96.0505 20.0732 96.0505 22.7474V26.3735C96.0505 29.0477 95.792 31.1723 95.275 32.7838C94.7579 34.396 93.9454 35.568 92.8007 36.3372C91.6561 37.0698 90.1046 37.4726 88.1844 37.4726C86.1899 37.5093 84.6388 37.1065 83.4942 36.3739C82.3495 35.6047 81.5366 34.4323 81.0569 32.8208C80.5765 31.209 80.355 29.0843 80.355 26.4105V22.7837C80.355 20.1096 80.6135 17.9119 81.1675 16.3C81.7215 14.6519 82.5707 13.4795 83.7527 12.7473C84.9343 12.0144 86.4484 11.6116 88.332 11.6116V11.612ZM152.37 1.5752V14.7619H152.407C152.924 13.8096 153.589 13.0404 154.512 12.4542C155.374 11.8791 156.39 11.573 157.429 11.5753C158.796 11.5753 159.83 11.9414 160.605 12.6373C161.381 13.3702 161.935 14.5055 162.267 16.0807C162.589 17.6066 162.773 19.7169 162.784 22.3781L162.784 22.6377V26.5936C162.784 30.293 162.304 33.0406 161.418 34.7988C160.495 36.557 159.091 37.4363 157.171 37.4363C156.1 37.4363 155.14 37.1798 154.254 36.7037C153.47 36.2507 152.82 35.601 152.369 34.8201L152.296 34.6887H152.185L151.594 37.0698H146.904V1.57554H152.37V1.5752ZM129.768 2.85726V7.39897H124.155V37.1061H118.615V7.39932H112.965V2.85761H129.769L129.768 2.85726ZM68.8694 2.85726L68.8729 2.87123C68.9268 3.10913 69.6734 6.40162 70.4948 10.2377L70.5596 10.5416L70.6575 11.001L70.723 11.3094L70.7558 11.4642L70.8213 11.7744L70.854 11.9299L70.9192 12.2411L71.0143 12.6963C71.569 15.3526 72.0983 18.0167 72.415 19.9268H72.5629C72.8661 18.2134 73.3068 16.0206 73.7766 13.7817L73.8999 13.1969C73.9618 12.9042 74.0238 12.6114 74.0865 12.3194L74.183 11.8663C74.821 8.89931 75.4781 5.93642 76.1543 2.97778L76.1649 2.93062L76.1818 2.85726H81.8321L75.2953 25.9711V37.0698H69.7189V26.0074H69.6819L63.219 2.85691H68.8694V2.85726ZM88.2211 15.4945C87.4455 15.4945 86.9285 15.8976 86.5964 16.7402C86.2639 17.5825 86.1163 18.8645 86.1163 20.6598V28.4618C86.1163 30.2934 86.2639 31.6485 86.5594 32.4547C86.8549 33.2603 87.4089 33.6634 88.2211 33.6634C88.9966 33.6634 89.5506 33.2603 89.8831 32.4547C90.2156 31.6485 90.3632 30.2934 90.3632 28.4618V20.6594C90.3632 18.8645 90.2152 17.5458 89.8831 16.7399C89.5506 15.8976 88.9966 15.4945 88.2211 15.4945V15.4945ZM153.367 16.2274C152.917 16.6396 152.597 17.1479 152.406 17.7833L152.37 17.9122V32.1246C152.828 32.8938 153.478 33.4067 154.623 33.4433C155.214 33.4433 155.693 33.2236 156.063 32.7841C156.432 32.3447 156.691 31.6118 156.838 30.5861C156.98 29.6017 157.054 28.2456 157.06 26.5185V23.0405C157.06 21.0625 156.986 19.5607 156.875 18.4984C156.727 17.4361 156.543 16.6668 156.211 16.2274C155.568 15.3114 154.18 15.3226 153.367 16.2274ZM172.904 15.3848C172.276 15.4215 171.832 15.6045 171.574 15.9343C171.279 16.3004 171.094 16.8499 170.983 17.6558C170.874 18.4453 170.837 21.2051 170.835 21.3155V23.1138H174.971V21.5279V21.5582C174.969 22.1126 174.957 21.2365 174.932 20.1609L174.928 20.0163C174.905 19.071 174.871 18.017 174.824 17.6558C174.713 16.8132 174.528 16.227 174.233 15.8976C173.937 15.5678 173.494 15.3848 172.903 15.3848H172.904Z" fill="white"/>
</svg>
