<svg width="59" height="50" viewBox="0 0 59 50" fill="none" xmlns="http://www.w3.org/2000/svg">
<path d="M47.5 20.8333H23.3333C21.0333 20.8333 20.8333 22.6958 20.8333 25C20.8333 27.3042 21.0333 29.1667 23.3333 29.1667H47.5C49.8 29.1667 50 27.3042 50 25C50 22.6958 49.8 20.8333 47.5 20.8333V20.8333ZM55.8333 41.6667H23.3333C21.0333 41.6667 20.8333 43.5292 20.8333 45.8333C20.8333 48.1375 21.0333 50 23.3333 50H55.8333C58.1333 50 58.3333 48.1375 58.3333 45.8333C58.3333 43.5292 58.1333 41.6667 55.8333 41.6667ZM23.3333 8.33333H55.8333C58.1333 8.33333 58.3333 6.47083 58.3333 4.16667C58.3333 1.8625 58.1333 0 55.8333 0H23.3333C21.0333 0 20.8333 1.8625 20.8333 4.16667C20.8333 6.47083 21.0333 8.33333 23.3333 8.33333ZM10 20.8333H2.5C0.2 20.8333 0 22.6958 0 25C0 27.3042 0.2 29.1667 2.5 29.1667H10C12.3 29.1667 12.5 27.3042 12.5 25C12.5 22.6958 12.3 20.8333 10 20.8333ZM10 41.6667H2.5C0.2 41.6667 0 43.5292 0 45.8333C0 48.1375 0.2 50 2.5 50H10C12.3 50 12.5 48.1375 12.5 45.8333C12.5 43.5292 12.3 41.6667 10 41.6667ZM10 0H2.5C0.2 0 0 1.8625 0 4.16667C0 6.47083 0.2 8.33333 2.5 8.33333H10C12.3 8.33333 12.5 6.47083 12.5 4.16667C12.5 1.8625 12.3 0 10 0Z" fill="#203647"/>
</svg>
