<svg width="42" height="40" viewBox="0 0 42 40" fill="none" xmlns="http://www.w3.org/2000/svg">
<path d="M20.9904 0C32.5639 0 41.9807 7.64049 41.9807 17.0337C41.9807 20.7936 40.5245 24.1783 37.4809 27.5131C33.0782 32.5823 23.2311 38.7561 20.9904 39.7006C18.8126 40.619 19.0645 39.1838 19.1642 38.617L19.1721 38.5698L19.4712 36.7725C19.542 36.2372 19.6155 35.4055 19.403 34.8755C19.1668 34.2904 18.238 33.986 17.5558 33.8391C7.46732 32.5088 0 25.4534 0 17.0337C0 7.64049 9.41943 0 20.9904 0ZM13.1767 20.1665H9.17541V12.9038C9.17541 12.7957 9.13265 12.692 9.05646 12.6153C8.98026 12.5386 8.87682 12.4952 8.76872 12.4945H7.29415C7.2404 12.4945 7.18717 12.5051 7.13751 12.5257C7.08785 12.5462 7.04273 12.5764 7.00472 12.6144C6.96672 12.6524 6.93657 12.6975 6.916 12.7472C6.89543 12.7968 6.88484 12.8501 6.88484 12.9038V22.0504C6.88484 22.1579 6.92944 22.2603 7.00029 22.3311V22.3337L7.00553 22.339L7.01078 22.3442C7.08687 22.4174 7.18858 22.4579 7.29415 22.4571H13.1767C13.4023 22.4571 13.5834 22.2734 13.5834 22.0477V20.5784C13.5837 20.5247 13.5735 20.4714 13.5532 20.4216C13.533 20.3718 13.5031 20.3265 13.4654 20.2882C13.4276 20.25 13.3827 20.2195 13.3331 20.1986C13.2836 20.1778 13.2305 20.1668 13.1767 20.1665V20.1665ZM15.2521 12.4945C15.1436 12.4945 15.0395 12.5376 14.9627 12.6144C14.8859 12.6912 14.8428 12.7953 14.8428 12.9038V22.0504C14.8428 22.276 15.0265 22.4571 15.2521 22.4571H16.7267C16.9523 22.4571 17.1334 22.2734 17.1334 22.0504V12.9038C17.1334 12.7957 17.0906 12.692 17.0144 12.6153C16.9382 12.5386 16.8348 12.4952 16.7267 12.4945H15.2521ZM25.3878 12.4945C25.2793 12.4945 25.1752 12.5376 25.0984 12.6144C25.0217 12.6912 24.9785 12.7953 24.9785 12.9038V18.3351L20.7883 12.6782C20.7777 12.6644 20.7663 12.6513 20.7542 12.6388V12.6362C20.7459 12.627 20.7372 12.6183 20.728 12.61L20.7201 12.6021C20.7111 12.5935 20.7015 12.5856 20.6912 12.5785H20.6886L20.6755 12.568L20.6676 12.5627C20.6635 12.5597 20.6591 12.557 20.6545 12.5549L20.6335 12.5417H20.6283L20.6204 12.5365L20.5942 12.526L20.5837 12.5207C20.5751 12.5176 20.5663 12.515 20.5574 12.5129H20.5522L20.5443 12.5103L20.5207 12.505H20.505L20.4971 12.5024H20.4866L20.4813 12.4998H18.9753C18.8672 12.4998 18.7635 12.5425 18.6868 12.6187C18.6101 12.6949 18.5667 12.7983 18.566 12.9064V22.053C18.566 22.2786 18.7496 22.4597 18.9753 22.4597H20.4446C20.6729 22.4597 20.8565 22.276 20.8565 22.053V16.6217L25.0546 22.2891C25.0825 22.3282 25.1172 22.362 25.1569 22.3888L25.1596 22.3915L25.1858 22.4072L25.1963 22.4125C25.2031 22.4164 25.2101 22.4199 25.2173 22.423L25.2357 22.4308L25.2488 22.4361C25.2574 22.439 25.2662 22.4416 25.275 22.4439H25.2829C25.317 22.4538 25.3523 22.459 25.3878 22.4597H26.8572C27.0854 22.4597 27.2691 22.276 27.2691 22.053V12.9038C27.2691 12.7953 27.226 12.6912 27.1492 12.6144C27.0725 12.5376 26.9683 12.4945 26.8598 12.4945H25.3878V12.4945ZM35.3976 14.3758V12.9064C35.398 12.8527 35.3877 12.7994 35.3675 12.7496C35.3472 12.6998 35.3174 12.6545 35.2796 12.6162C35.2418 12.578 35.1969 12.5476 35.1474 12.5267C35.0978 12.5058 35.0447 12.4949 34.9909 12.4945H29.1084C29.0025 12.4946 28.9008 12.5361 28.825 12.61H28.8224L28.8198 12.6152L28.8145 12.6231C28.7412 12.6983 28.6999 12.7988 28.6991 12.9038V22.0504C28.6991 22.1579 28.7437 22.2603 28.8145 22.3311L28.8198 22.339L28.825 22.3442C28.9013 22.4172 29.0029 22.4576 29.1084 22.4571H34.9909C35.2166 22.4571 35.3976 22.2734 35.3976 22.0477V20.5784C35.398 20.5247 35.3877 20.4714 35.3675 20.4216C35.3472 20.3718 35.3174 20.3265 35.2796 20.2882C35.2418 20.25 35.1969 20.2195 35.1474 20.1986C35.0978 20.1778 35.0447 20.1668 34.9909 20.1665H30.987V18.6211H34.9883C35.214 18.6211 35.395 18.4374 35.395 18.2118V16.7424C35.3953 16.6887 35.3851 16.6354 35.3648 16.5856C35.3446 16.5358 35.3147 16.4905 35.277 16.4522C35.2392 16.414 35.1943 16.3835 35.1447 16.3627C35.0952 16.3418 35.0421 16.3308 34.9883 16.3305H30.987V14.7851H34.9883C35.214 14.7851 35.395 14.6014 35.395 14.3758H35.3976Z" fill="#06C755"/>
</svg>
