<svg width="50" height="50" viewBox="0 0 50 50" fill="none" xmlns="http://www.w3.org/2000/svg">
<path d="M41.6951 13.6545L11.0473 0.211849C10.434 -0.0560315 9.73918 -0.0704185 9.11532 0.171849C8.80701 0.293549 8.52591 0.474824 8.28821 0.705233C8.05051 0.935643 7.86091 1.21063 7.73033 1.51437L0.203232 19.0146C-0.05888 19.6239 -0.0673568 20.3121 0.179666 20.9277C0.42669 21.5432 0.908983 22.0358 1.52047 22.2971L18.9758 29.7497L15.8646 37.4998H5.01807V29.9997H0V50H5.01807V42.4999H15.8646C17.9295 42.4999 19.7586 41.2649 20.5214 39.3549L23.5874 31.7198L32.1658 35.3823C32.7746 35.643 33.4622 35.6531 34.0784 35.4105C34.6947 35.1679 35.1896 34.6922 35.4551 34.0873L42.9822 16.9446C43.2486 16.3381 43.2626 15.6512 43.0213 15.0344C42.78 14.4176 42.3031 13.9214 41.6951 13.6545V13.6545ZM44.987 35.9298L40.3252 34.0748L45.3382 21.5746L50 23.4272L44.987 35.9298Z" fill="#203647"/>
</svg>
