<svg width="19" height="50" viewBox="0 0 19 50" fill="none" xmlns="http://www.w3.org/2000/svg">
<path fill-rule="evenodd" clip-rule="evenodd" d="M17.236 0.202186C17.7837 0.430645 18.1999 0.830147 18.3934 1.3131C18.5869 1.79605 18.542 2.32303 18.2684 2.77851L4.9027 24.9925L18.2731 47.2027C18.412 47.4287 18.4958 47.6753 18.5195 47.9282C18.5432 48.1812 18.5064 48.4356 18.4112 48.6767C18.3159 48.9178 18.1642 49.1408 17.9647 49.333C17.7652 49.5251 17.5218 49.6826 17.2487 49.7963C16.9756 49.9099 16.6781 49.9776 16.3733 49.9953C16.0686 50.013 15.7626 49.9805 15.4731 49.8995C15.1836 49.8186 14.9162 49.6908 14.6864 49.5236C14.4566 49.3564 14.2689 49.1531 14.1342 48.9254L0.245293 25.8539C0.0839899 25.5865 0 25.2916 0 24.9925C0 24.6935 0.0839899 24.3986 0.245293 24.1312L14.1342 1.05968C14.4092 0.60483 14.8902 0.259136 15.4717 0.0983925C16.0532 -0.0623509 16.6877 -0.0250252 17.236 0.202186V0.202186Z" fill="#00B2FF"/>
</svg>
