<svg width="50" height="50" viewBox="0 0 50 50" fill="none" xmlns="http://www.w3.org/2000/svg">
<path fill-rule="evenodd" clip-rule="evenodd" d="M22.6974 6.25C18.3353 6.25 14.1518 7.98284 11.0673 11.0673C7.98284 14.1518 6.25 18.3353 6.25 22.6974C6.25 27.0595 7.98284 31.2429 11.0673 34.3274C14.1518 37.4119 18.3353 39.1447 22.6974 39.1447C27.0351 39.1447 31.1961 37.4312 34.2755 34.3791C34.2959 34.3576 34.3166 34.3363 34.3377 34.3153C34.3564 34.2966 34.3753 34.2782 34.3944 34.2601C37.437 31.1822 39.1447 27.0278 39.1447 22.6974C39.1447 18.3353 37.4119 14.1518 34.3274 11.0673C31.2429 7.98284 27.0595 6.25 22.6974 6.25ZM40.8101 36.3759C43.7682 32.4591 45.3947 27.6621 45.3947 22.6974C45.3947 16.6777 43.0034 10.9045 38.7468 6.64791C34.4903 2.39132 28.7171 0 22.6974 0C16.6777 0 10.9045 2.39132 6.64791 6.64791C2.39132 10.9045 0 16.6777 0 22.6974C0 28.7171 2.39132 34.4903 6.64791 38.7468C10.9045 43.0034 16.6777 45.3947 22.6974 45.3947C27.6692 45.3947 32.4728 43.7635 36.3927 40.7974L44.6633 49.0827C45.8826 50.3042 47.8613 50.306 49.0827 49.0867C50.3042 47.8674 50.306 45.8887 49.0867 44.6673L40.8101 36.3759Z" fill="#00B2FF"/>
</svg>
