<svg width="40" height="50" viewBox="0 0 40 50" fill="none" xmlns="http://www.w3.org/2000/svg">
<path d="M19.6429 0C14.4352 0.0061437 9.44248 2.07763 5.76007 5.76005C2.07765 9.44246 0.0061646 14.4351 2.0898e-05 19.6429C-0.00621641 23.8986 1.38391 28.0389 3.95716 31.4286C3.95716 31.4286 4.49288 32.1339 4.58038 32.2357L19.6429 50L34.7125 32.2268C34.7911 32.1321 35.3286 31.4286 35.3286 31.4286L35.3304 31.4232C37.9023 28.035 39.2918 23.8967 39.2857 19.6429C39.2796 14.4351 37.2081 9.44246 33.5257 5.76005C29.8433 2.07763 24.8506 0.0061437 19.6429 0V0ZM19.6429 26.7857C18.2302 26.7857 16.8492 26.3668 15.6745 25.5819C14.4999 24.7971 13.5844 23.6815 13.0437 22.3763C12.5031 21.0711 12.3617 19.6349 12.6373 18.2494C12.9129 16.8638 13.5932 15.591 14.5921 14.5921C15.5911 13.5931 16.8638 12.9129 18.2494 12.6372C19.635 12.3616 21.0711 12.5031 22.3763 13.0437C23.6815 13.5843 24.7971 14.4999 25.5819 15.6745C26.3668 16.8491 26.7857 18.2301 26.7857 19.6429C26.7834 21.5365 26.0301 23.352 24.691 24.691C23.352 26.03 21.5366 26.7834 19.6429 26.7857V26.7857Z" fill="white"/>
</svg>
