<svg width="19" height="50" viewBox="0 0 19 50" fill="none" xmlns="http://www.w3.org/2000/svg">
<path opacity="0.6" fill-rule="evenodd" clip-rule="evenodd" d="M1.76397 49.7978C1.21634 49.5694 0.800126 49.1699 0.606593 48.6869C0.413061 48.2039 0.458002 47.677 0.73156 47.2215L14.0973 25.0075L0.726933 2.79728C0.587956 2.57132 0.504204 2.32475 0.480506 2.07178C0.456807 1.8188 0.493631 1.56444 0.588854 1.32334C0.684077 1.08225 0.835817 0.85919 1.03532 0.667035C1.23483 0.474879 1.47816 0.317423 1.75128 0.203745C2.0244 0.0900683 2.32191 0.0224176 2.62666 0.00469428C2.9314 -0.013029 3.23736 0.0195245 3.52689 0.10048C3.81642 0.181435 4.08379 0.309191 4.31359 0.47638C4.54339 0.643568 4.73108 0.846884 4.86582 1.0746L18.7547 24.1461C18.916 24.4135 19 24.7084 19 25.0075C19 25.3065 18.916 25.6014 18.7547 25.8688L4.86582 48.9403C4.59076 49.3952 4.10976 49.7409 3.52829 49.9016C2.94683 50.0623 2.31235 50.025 1.76397 49.7978Z" fill="black"/>
</svg>
