<svg width="110" height="16" viewBox="0 0 110 16" fill="none" xmlns="http://www.w3.org/2000/svg">
<g clip-path="url(#clip0_16_274)">
<path d="M80.1428 5.28578V3.71436H86.8571V5.28578H84.5714V12.0001H82.4285V5.28578H80.1428Z" fill="#007CC7"/>
<path d="M57.8572 6.85714C58 6.85714 58.2858 6.71429 58.4286 6.71429C58.5715 6.57143 58.7143 6.57143 58.7143 6.42857C58.8572 6.28571 58.8572 6.14286 58.8572 6C58.8572 5.85714 58.8572 5.71429 58.8572 5.57143C58.8572 5.42857 58.8572 5.28571 58.7143 5.28571C58.7143 5.14286 58.5715 5.14286 58.5715 5.14286C58.4286 5.14286 58.4286 5 58.2858 5C58.1429 5 58 5 57.8572 5C57.7143 5 57.5715 5 57.4286 5H55.7143L55.2858 7.14286H57.1429C57.4286 7 57.7143 7 57.8572 6.85714Z" fill="#007CC7"/>
<path d="M57.5715 10.5716C57.7143 10.5716 57.8572 10.4287 58 10.2859C58.1429 10.143 58.2857 10.0001 58.2857 9.85728C58.4286 9.71443 58.5715 9.57157 58.5715 9.42871C58.5715 9.143 58.5715 9.00014 58.5715 8.85728C58.5715 8.71442 58.4286 8.57157 58.2857 8.57157C58.1429 8.42871 58 8.42871 57.8572 8.42871C57.7143 8.42871 57.4286 8.42871 57.2857 8.42871H55L54.4286 10.8573H57C57.1429 10.7144 57.2857 10.5716 57.5715 10.5716Z" fill="#007CC7"/>
<path d="M73.4286 0H72.8571H0V15.7143H72.8571H73.4286H110V0H73.4286ZM12.5714 8.28572H8.28572L7.71429 10.7143H12.2857L12.1429 11.8571H6L7.71429 3.42857H13.7143L13.5714 4.85714H9L8.57143 7H12.8571L12.5714 8.28572ZM20.1429 11.8571H18.4286L16 5.71429L14.7143 11.8571H13.2857L15 3.42857H16.7143L19.1429 9.71429L20.4286 3.42857H21.8571L20.1429 11.8571ZM23.7143 9.28571C23.7143 9.57143 23.8571 9.71429 24 9.85714C24.1429 10 24.2857 10.1429 24.4286 10.2857C24.5714 10.4286 24.8571 10.5714 25 10.5714C25.2857 10.7143 25.4286 10.7143 25.7143 10.7143C26.1429 10.7143 26.4286 10.7143 26.7143 10.5714C27 10.4286 27.2857 10.2857 27.5714 10.1429C27.8571 10 28 9.71429 28.2857 9.42857C28.4286 9.14286 28.5714 8.85714 28.5714 8.57143H26L26.2857 7.28571H30.2857L29.2857 11.8571H28.2857L28.1429 11.1429C28 11.2857 27.7143 11.4286 27.4286 11.5714C27.1429 11.7143 27 11.7143 26.7143 11.8571C26.4286 12 26.2857 12 26 12C25.7143 12 25.5714 12 25.2857 12C24.8571 12 24.4286 12 24.1429 11.8571C23.8571 11.7143 23.4286 11.5714 23.2857 11.4286C23 11.2857 22.8571 11 22.5714 10.7143C22.4286 10.4286 22.2857 10.1429 22.1429 9.85714C22 9.57143 22 9.28571 22 8.85714C22 8.57143 22 8.14286 22.1429 7.71429C22.2857 7.28571 22.2857 6.85714 22.5714 6.57143C22.7143 6.14286 22.8571 5.85714 23.1429 5.42857C23.4286 5.14286 23.5714 4.71429 23.8571 4.57143C24.1429 4.28571 24.4286 4 24.8571 3.85714C25.1429 3.71429 25.5714 3.57143 26 3.42857C26.4286 3.28571 26.8571 3.28571 27.2857 3.28571C27.5714 3.28571 27.8571 3.28571 28.1429 3.28571C28.4286 3.28571 28.7143 3.42857 28.8571 3.57143C29 3.71429 29.2857 3.85714 29.4286 4C29.7143 4.14286 30 4.42857 30 4.57143C30.1429 4.85714 30.1429 5 30.2857 5.28571C30.2857 5.57143 30.2857 5.85714 30.2857 6.28571H28.8571C28.8571 6 28.8571 5.71429 28.7143 5.42857C28.5714 5.14286 28.4286 5 28.2857 4.85714C28.1429 4.71429 27.8571 4.57143 27.7143 4.57143C27.4286 4.57143 27.2857 4.42857 27 4.42857C26.7143 4.42857 26.4286 4.42857 26.1429 4.57143C25.8571 4.71429 25.5714 4.71429 25.4286 4.85714C25.1429 5 25 5.14286 24.8571 5.42857C24.7143 5.57143 24.5714 5.85714 24.4286 6.14286C24.2857 6.42857 24.1429 6.57143 24 6.85714C23.8571 7.14286 23.8571 7.42857 23.7143 7.71429C23.7143 8 23.5714 8.28571 23.5714 8.42857C23.5714 8.85714 23.5714 9 23.7143 9.28571ZM30.8571 11.8571L32.5714 3.42857H34L32.2857 11.8571H30.8571ZM39.2857 11.8571L36.8571 5.71429L35.5714 11.8571H34.1429L35.8571 3.42857H37.5714L40 9.71429L41.2857 3.42857H42.7143L41 11.8571H39.2857ZM50.1429 4.85714H45.5714L45.1429 7H49.4286L49.1429 8.28572H44.8571L44.2857 10.7143H48.8571L48.5714 11.8571H42.5714L44.2857 3.57143H50.2857L50.1429 4.85714ZM60.4286 5.71429C60.2857 6.14286 60.1429 6.42857 60 6.71429C59.8571 7 59.5714 7.28571 59.1429 7.42857C59.2857 7.57143 59.4286 7.57143 59.5714 7.71429C59.7143 7.85714 59.8571 8 59.8571 8.14286C59.8571 8.28571 60 8.42857 60 8.71429C60 8.85714 60 9.14286 60 9.28571C60 9.57143 60 9.85714 59.8571 10C59.7143 10.1429 59.7143 10.4286 59.5714 10.5714C59.4286 10.7143 59.2857 10.8571 59.1429 11.1429C58.8571 11.2857 58.5714 11.4286 58.4286 11.5714C58.1429 11.7143 58 11.7143 57.7143 11.8571C57.4286 11.8571 57.1429 12 56.8571 12H52.7143L54.4286 3.57143H57.8571C58.1429 3.57143 58.2857 3.57143 58.5714 3.57143C58.8571 3.57143 59 3.57143 59.2857 3.71429C59.5714 3.71429 59.7143 3.85714 59.8571 4C60 4 60.1429 4.14286 60.2857 4.28571C60.4286 4.42857 60.4286 4.57143 60.5714 4.85714C60.5714 5.14286 60.5714 5.42857 60.4286 5.71429ZM65.4286 8.57143L64.7143 12H63.2857L63.8571 8.57143L61.7143 3.57143H63.4286L64.8571 7.14286L67.8571 3.57143H69.5714L65.4286 8.57143ZM108.714 14.4286H74.2857V1.42857H108.714V14.4286Z" fill="#007CC7"/>
<path d="M91.8571 10.4287C91.7143 10.4287 91.5714 10.5716 91.4285 10.5716C91.2857 10.5716 91.1428 10.5716 91 10.5716C90.7143 10.5716 90.5714 10.5716 90.2857 10.4287C90.1428 10.4287 89.8571 10.2859 89.7142 10.143C89.5714 10.0001 89.4285 9.85728 89.2857 9.71443C89.1428 9.57157 89.1428 9.28585 89.1428 9.00014H87.1428C87.1428 9.28585 87.1428 9.71443 87.2857 10.0001C87.4285 10.2859 87.5714 10.5716 87.7143 10.7144C87.8571 11.0001 88.1428 11.143 88.2857 11.2859C88.5714 11.4287 88.7142 11.5716 89 11.7144C89.2857 11.8573 89.5714 11.8573 89.8571 12.0001C90.1428 12.0001 90.5714 12.143 90.8571 12.143C91.4285 12.143 92 12.143 92.4285 12.0001C92.8571 11.8573 93.2857 11.7144 93.5714 11.4287C93.8571 11.143 94.1428 10.8573 94.2857 10.5716C94.4285 10.2859 94.5714 9.85728 94.5714 9.42871C94.5714 9.143 94.5714 8.85728 94.4285 8.57157C94.2857 8.28585 94.1428 8.143 94 8.00014C93.8571 7.85728 93.7143 7.71443 93.4285 7.57157C93.2857 7.42871 93 7.28585 92.8571 7.28585C92.7143 7.143 92.4285 7.143 92.2857 7.143C92.1428 7.143 92 7.00014 91.8571 7.00014C91.5714 6.85728 91.2857 6.85728 91 6.71442C90.7143 6.57157 90.5714 6.57157 90.4285 6.42871C90.2857 6.42871 90.1428 6.28585 90 6.28585C89.8571 6.28585 89.8571 6.143 89.7142 6.143L89.5714 6.00014V5.85728C89.5714 5.71443 89.5714 5.57157 89.7142 5.57157C89.7142 5.42871 89.8571 5.42871 90 5.28585C90.1428 5.28585 90.2857 5.143 90.2857 5.143C90.4285 5.143 90.5714 5.143 90.7143 5.143C90.8571 5.143 91.1428 5.143 91.2857 5.143C91.4285 5.143 91.5714 5.28585 91.7142 5.28585C91.8571 5.42871 92 5.42871 92 5.57157C92.1428 5.71443 92.1428 5.85728 92.1428 6.143H94.2857C94.2857 5.71443 94.1428 5.28585 94 4.85728C93.8571 4.57157 93.5714 4.28585 93.2857 4.00014C93 3.71443 92.5714 3.57157 92.1428 3.57157C91.7143 3.42871 91.2857 3.42871 90.7143 3.42871C90.4285 3.42871 90.1428 3.42871 89.8571 3.42871C89.5714 3.42871 89.2857 3.57157 89 3.57157C88.7142 3.71443 88.5714 3.71443 88.2857 3.85728C88 4.00014 87.8571 4.143 87.7143 4.28585C87.5714 4.42871 87.4285 4.71443 87.2857 4.85728C87.2857 5.42871 87.1428 5.71442 87.1428 6.00014C87.1428 6.28585 87.1428 6.42871 87.2857 6.71442C87.4285 6.85728 87.4285 7.143 87.5714 7.28585C87.7142 7.42871 87.8571 7.57157 88 7.71443C88.1428 7.85728 88.4285 8.00014 88.5714 8.00014C88.7143 8.143 89 8.143 89.2857 8.28585C89.5714 8.28585 89.7143 8.42871 90 8.42871C90.2857 8.57157 90.5714 8.57157 90.8571 8.71443C91.1428 8.85728 91.4285 8.85728 91.5714 9.00014C91.8571 9.143 92 9.143 92.1428 9.28585C92.2857 9.42871 92.2857 9.57157 92.2857 9.71443C92.2857 9.85728 92.2857 10.0001 92.1428 10.143C92.1428 10.2859 92 10.4287 91.8571 10.4287Z" fill="#007CC7"/>
<path d="M101.714 10.9999C102.143 10.5713 102.286 10.1427 102.571 9.57129C102.714 8.99986 102.857 8.42843 102.857 7.71415C102.857 6.99986 102.714 6.42843 102.571 5.857C102.429 5.28557 102.143 4.99986 101.714 4.57129C101.286 4.28557 100.857 3.99986 100.286 3.857C99.7143 3.71415 99.1429 3.57129 98.4286 3.57129H95.2858V11.9999H98.4286C99.1429 11.9999 99.8572 11.857 100.286 11.7141C101 11.5713 101.429 11.2856 101.714 10.9999ZM99.8572 9.99986C99.7143 10.1427 99.5715 10.1427 99.2858 10.2856C99.1429 10.2856 99.0001 10.4284 98.8572 10.4284C98.7143 10.4284 98.5715 10.4284 98.4286 10.4284H97.4286V5.28558H98.5715C99.0001 5.28558 99.2858 5.28557 99.5715 5.42843C99.8572 5.57129 100 5.71415 100.286 5.99986C100.429 6.14272 100.571 6.42843 100.714 6.857C100.857 7.14272 100.857 7.57129 100.857 7.99986C100.857 8.42843 100.857 8.71415 100.714 8.99986C100.571 9.28558 100.571 9.57129 100.429 9.71415C100.143 9.71415 100 9.857 99.8572 9.99986Z" fill="#007CC7"/>
<path d="M105.857 10.1431H103.857V12.1431H105.857V10.1431Z" fill="#007CC7"/>
</g>
<defs>
<clipPath id="clip0_16_274">
<rect width="110" height="15.7143" fill="white"/>
</clipPath>
</defs>
</svg>
