<?xml version="1.0" encoding="utf-8"?>
<!-- Generator: Adobe Illustrator 24.3.0, SVG Export Plug-In . SVG Version: 6.00 Build 0)  -->
<svg version="1.1" id="Layer_1" xmlns="http://www.w3.org/2000/svg" xmlns:xlink="http://www.w3.org/1999/xlink" x="0px" y="0px"
	 viewBox="0 0 50 50" style="enable-background:new 0 0 50 50;" xml:space="preserve">
<style type="text/css">
	.st0{fill:#636363;}
</style>
<path class="st0" d="M45,14.9L25,27.5L5,14.9V9.8l20,12.6L45,9.8V14.9z M45,4.8H5C2.2,4.8,0,7,0,9.8v30.4c0,1.3,0.5,2.6,1.5,3.6
	c0.9,0.9,2.2,1.5,3.5,1.5h40c1.3,0,2.6-0.5,3.5-1.5s1.5-2.2,1.5-3.6V9.8c0-1.3-0.5-2.6-1.5-3.6C47.6,5.3,46.3,4.8,45,4.8L45,4.8z"/>
</svg>
