<?xml version="1.0" encoding="utf-8"?>
<!-- Generator: Adobe Illustrator 24.3.0, SVG Export Plug-In . SVG Version: 6.00 Build 0)  -->
<svg version="1.1" id="Layer_1" xmlns="http://www.w3.org/2000/svg" xmlns:xlink="http://www.w3.org/1999/xlink" x="0px" y="0px"
	 viewBox="0 0 50 50" style="enable-background:new 0 0 50 50;" xml:space="preserve">
<style type="text/css">
	.st0{clip-path:url(#SVGID_2_);}
</style>
<g>
	<defs>
		<rect id="SVGID_1_" y="3.6" width="50" height="43.3"/>
	</defs>
	<clipPath id="SVGID_2_">
		<use xlink:href="#SVGID_1_"  style="overflow:visible;"/>
	</clipPath>
	<g class="st0">
		<path d="M25,46.5l-0.9-0.7C5.1,30.6,0,25.2,0,16.6c0-7.2,5.9-13,13.2-13c6,0,9.4,3.3,11.8,5.9c2.4-2.6,5.7-5.9,11.8-5.9
			c7.4,0,13.2,5.8,13.2,13c0,8.7-5.1,14-24.1,29.2L25,46.5z M13.2,6.5c-5.7,0-10.3,4.5-10.3,10.1c0,7.4,4.7,12.3,22.1,26.1
			c17.4-13.9,22.1-18.8,22.1-26.1c0-5.6-4.6-10.1-10.3-10.1c-5.1,0-7.9,3-10.1,5.5L25,13.8L23.4,12C21.2,9.5,18.4,6.5,13.2,6.5z"/>
	</g>
</g>
</svg>
