<?xml version="1.0" encoding="utf-8"?>
<!-- Generator: Adobe Illustrator 24.3.0, SVG Export Plug-In . SVG Version: 6.00 Build 0)  -->
<svg version="1.1" id="Layer_1" xmlns="http://www.w3.org/2000/svg" xmlns:xlink="http://www.w3.org/1999/xlink" x="0px" y="0px"
	 viewBox="0 0 50 50" style="enable-background:new 0 0 50 50;" xml:space="preserve">
<path d="M49.8,46.3c-3.8-6.4-9.9-11.2-17.1-13.2c3.4-1.7,6.1-4.5,7.7-8c1.6-3.4,2-7.3,1.1-11c-0.9-3.7-3-7-6-9.3
	c-3-2.4-6.7-3.6-10.5-3.6s-7.5,1.3-10.5,3.6c-3,2.4-5.1,5.6-6,9.3c-0.9,3.7-0.5,7.6,1.1,11c1.6,3.4,4.3,6.3,7.7,8
	c-7.2,2-13.4,6.7-17.1,13.2C0,46.6-0.1,47,0,47.4c0.1,0.4,0.3,0.7,0.7,0.9s0.7,0.2,1.1,0.1c0.4-0.1,0.7-0.3,0.9-0.7
	c2.3-3.9,5.5-7.1,9.4-9.4c3.9-2.2,8.3-3.4,12.9-3.4c4.5,0,9,1.2,12.9,3.4c3.9,2.2,7.2,5.5,9.4,9.4c0.2,0.3,0.5,0.6,0.9,0.7
	c0.4,0.1,0.8,0,1.1-0.1c0.3-0.2,0.6-0.5,0.7-0.9C50.1,47,50,46.6,49.8,46.3z M10.9,18c0-2.8,0.8-5.5,2.4-7.8
	c1.5-2.3,3.7-4.1,6.3-5.2C22.2,4,25,3.7,27.7,4.3C30.5,4.8,33,6.2,35,8.1c2,2,3.3,4.5,3.9,7.2c0.5,2.7,0.3,5.5-0.8,8.1
	c-1.1,2.6-2.9,4.7-5.2,6.3c-2.3,1.5-5,2.4-7.8,2.4c-3.7,0-7.3-1.5-9.9-4.1C12.4,25.3,10.9,21.7,10.9,18z"/>
</svg>
