<?xml version="1.0" encoding="utf-8"?>
<!-- Generator: Adobe Illustrator 24.3.0, SVG Export Plug-In . SVG Version: 6.00 Build 0)  -->
<svg version="1.1" id="Layer_1" xmlns="http://www.w3.org/2000/svg" xmlns:xlink="http://www.w3.org/1999/xlink" x="0px" y="0px"
	 viewBox="0 0 50 50" style="enable-background:new 0 0 50 50;" xml:space="preserve">
<path d="M36.2,15.6V11c0-1.4-0.3-2.9-0.9-4.2c-0.6-1.3-1.4-2.5-2.4-3.6c-1-1-2.3-1.8-3.6-2.4C27.9,0.3,26.5,0,25,0s-2.9,0.3-4.3,0.8
	c-1.4,0.6-2.6,1.4-3.6,2.4c-1,1-1.9,2.2-2.4,3.6C14,8.1,13.8,9.5,13.8,11v11c0,0.4,0.2,0.8,0.5,1.1c0.3,0.3,0.7,0.5,1.1,0.5
	c0.4,0,0.8-0.2,1.1-0.5c0.3-0.3,0.5-0.7,0.5-1.1v-3.2h12.8v-3.1H17V11c0-2.1,0.8-4.1,2.4-5.5C20.8,4,22.9,3.1,25,3.1
	s4.2,0.8,5.7,2.3C32.2,6.9,33,8.9,33,11v10.9c0,0.4,0.2,0.8,0.5,1.1c0.3,0.3,0.7,0.5,1.1,0.5c0.4,0,0.8-0.2,1.1-0.5
	c0.3-0.3,0.5-0.7,0.5-1.1v-3.1h8v28.2H5.7V18.7h4.8v-3.1h-8V47c0,0.8,0.3,1.6,0.9,2.1C4,49.7,4.8,50,5.6,50h38.8
	c0.8,0,1.6-0.3,2.2-0.9c0.6-0.6,0.9-1.3,0.9-2.1V15.6H36.2z"/>
</svg>
