<?xml version="1.0" encoding="utf-8"?>
<!-- Generator: Adobe Illustrator 24.3.0, SVG Export Plug-In . SVG Version: 6.00 Build 0)  -->
<svg version="1.1" id="Layer_1" xmlns="http://www.w3.org/2000/svg" xmlns:xlink="http://www.w3.org/1999/xlink" x="0px" y="0px"
	 viewBox="0 0 300 55" style="enable-background:new 0 0 300 55;" xml:space="preserve">
<style type="text/css">
	.st0{fill:#080709;}
</style>
<g id="Layer_2_1_">
	<g id="Layer_1-2">
		<path class="st0" d="M160.7,7.9c-3.7,1-6.2,4.3-6.2,8.1v12.4h2.9V16c0-2.4,1.6-4.6,3.9-5.3l0.4-0.1V7.6l-0.7,0.2L160.7,7.9z"/>
		<path class="st0" d="M174.2,7.2c-5.8,0-10.6,4.7-10.6,10.6s4.7,10.6,10.6,10.6c5.8,0,10.6-4.7,10.6-10.6S180,7.2,174.2,7.2z
			 M174.2,25.6c-4.3,0-7.8-3.5-7.8-7.8s3.5-7.8,7.8-7.8s7.8,3.5,7.8,7.8c0,0,0,0,0,0C182,22.1,178.5,25.6,174.2,25.6z"/>
		<path class="st0" d="M99.1,7.6c-1.8,0-3.5,0.7-4.8,1.9c-0.4,0.4-1,0.4-1.5,0c-2.8-2.6-7.1-2.5-9.8,0.2c-1.2,1.3-1.9,3-1.9,4.8
			v13.9h2.9V14.5c0.1-2.2,2-4,4.2-3.9c2.1,0.1,3.9,1.8,3.9,3.9v13.9h2.9V14.5c0-2.2,1.8-4.1,4.1-4.1c2.2,0,4.1,1.8,4.1,4.1v13.9h2.9
			V14.5C106,10.7,102.9,7.6,99.1,7.6z"/>
		<path class="st0" d="M145.9,7.2c-5.8,0-10.6,4.7-10.6,10.6s4.7,10.6,10.6,10.6c0.4,0,0.8,0,1.3-0.1l0.5-0.1v-2.8l-0.7,0.1
			c-4.3,0.6-8.2-2.3-8.8-6.6c-0.6-4.3,2.3-8.2,6.6-8.8c0.4-0.1,0.8-0.1,1.2-0.1c0.4,0,0.7,0,1.1,0.1l0.7,0.1V7.4l-0.5-0.1
			C146.7,7.3,146.3,7.2,145.9,7.2z"/>
		<path class="st0" d="M120.2,7.2c-5.8,0-10.6,4.7-10.6,10.6s4.7,10.6,10.6,10.6c2.2,0,4.3-0.7,6.1-1.9c0.5-0.3,1.1-0.2,1.5,0.2
			c0.1,0.2,0.2,0.4,0.2,0.6v0.7h2.8V17.8C130.8,12,126,7.2,120.2,7.2z M120.2,25.6c-4.3,0-7.8-3.5-7.8-7.8s3.5-7.8,7.8-7.8
			c4.3,0,7.8,3.5,7.8,7.8C128,22.1,124.5,25.6,120.2,25.6z"/>
		<path class="st0" d="M234.5,7.9c-1.4-0.4-3-0.4-4.4,0c-3.7,1-6.2,4.3-6.2,8.1v12.4h2.9V16c-0.1-3.1,2.3-5.6,5.4-5.7
			c3.1-0.1,5.6,2.3,5.7,5.4c0,0.1,0,0.2,0,0.3v12.4h2.9V16C240.7,12.2,238.2,8.9,234.5,7.9z"/>
		<path class="st0" d="M193.2,24.5V0.6h-2.9v27.8h4.6v-2.9h-0.7C193.7,25.5,193.2,25.1,193.2,24.5z"/>
		<path class="st0" d="M212.4,7.6c-5.7-1.4-11.4,2-12.9,7.6c-1.4,5.7,2,11.4,7.6,12.9c0.9,0.2,1.7,0.3,2.6,0.3c0.4,0,0.8,0,1.3-0.1
			l0.5-0.1v-2.8l-0.7,0.1c-3.6,0.5-7.1-1.5-8.4-4.9c-0.2-0.5,0.1-1.2,0.6-1.4c0.1,0,0.3-0.1,0.4-0.1h16.8l0-0.5c0-0.3,0-0.6,0-0.8
			C220.4,13,217.1,8.8,212.4,7.6L212.4,7.6z M217,16c-0.2,0.3-0.5,0.5-0.9,0.4h-12.5c-0.4,0-0.7-0.1-0.9-0.4c-0.2-0.3-0.2-0.7-0.1-1
			c1.2-3,4-5,7.3-5c1.1,0,2.3,0.2,3.3,0.7c1.8,0.9,3.2,2.4,4,4.3C217.2,15.3,217.2,15.7,217,16z"/>
		<path class="st0" d="M262.8,8.3c0,0.6-0.5,1.1-1.1,1.1c-0.2,0-0.4-0.1-0.6-0.2c-4.8-3.4-11.4-2.3-14.7,2.5s-2.3,11.4,2.5,14.7
			c4.8,3.4,11.4,2.3,14.7-2.5c1.3-1.8,1.9-3.9,1.9-6.1V0.3h-2.8L262.8,8.3z M255,25.6c-4.3,0-7.8-3.5-7.8-7.8s3.5-7.8,7.8-7.8
			c4.3,0,7.8,3.5,7.8,7.8C262.8,22.1,259.3,25.6,255,25.6z"/>
		<path class="st0" d="M282,7.6c-5.7-1.4-11.4,2-12.9,7.6c-1.4,5.7,2,11.4,7.6,12.9c0.9,0.2,1.7,0.3,2.6,0.3c0.4,0,0.8,0,1.3-0.1
			l0.5-0.1v-2.8l-0.7,0.1c-3.6,0.5-7.1-1.5-8.4-4.9c-0.2-0.5,0.1-1.2,0.6-1.4c0.1,0,0.2-0.1,0.4-0.1h16.8l0-0.5c0-0.3,0-0.6,0-0.8
			C290,13,286.7,8.7,282,7.6L282,7.6z M286.6,16c-0.2,0.3-0.5,0.5-0.9,0.4h-12.6c-0.4,0-0.7-0.2-0.9-0.4c-0.2-0.3-0.2-0.7-0.1-1
			c1.2-3,4.1-5,7.3-5c1.1,0,2.3,0.2,3.3,0.7c1.8,0.9,3.2,2.4,4,4.3C286.8,15.3,286.8,15.7,286.6,16z"/>
		<path class="st0" d="M299.3,7.8L299,7.9c-3.7,1-6.2,4.3-6.2,8.1v12.4h2.9V16c0-2.4,1.6-4.6,3.9-5.3l0.4-0.1V7.6L299.3,7.8z"/>
		<path class="st0" d="M68.4,37l-7.3-22.2c-1.6-5.4-6.3-9.2-11.8-9.7h-0.1l-0.5,0H48h-0.4h-0.1h-0.2l-0.4,0l-0.3,0l-0.3,0L46,5.2
			l-0.2,0l-0.5,0.1h-0.1c-2.5,0.6-4.8,1.8-6.6,3.6l-4,4l-4-4c-2.2-2.2-5-3.5-8-3.9l-0.4,0l-0.4,0h-0.1C15.5,4.8,10,8.6,8.1,14.4
			L0.7,37C-1.6,44.1,2.2,51.7,9.3,54c1.4,0.4,2.8,0.7,4.2,0.7c5.8,0,11-3.8,12.8-9.3l0.6-2c4.5,3,10.5,3,15,0l0.6,1.9
			c2.3,7.1,10,11,17.1,8.6C66.8,51.7,70.7,44.1,68.4,37z M24.6,41.4l-1,3.1c-1.8,5.6-7.8,8.6-13.3,6.8c0,0,0,0,0,0
			c-5.6-1.8-8.6-7.8-6.8-13.4l4.8-14.7c0.7,1.9,1.7,3.5,3.1,4.9l13.1,13.1L24.6,41.4z M25,22.6c-2.9,2.9-4.3,7-3.9,11.1l-7.7-7.7
			c-4.1-4.1-4.1-10.8,0-15c2-2,4.7-3.1,7.5-3.1c0.2,0,0.3,0,0.5,0h0.1h0.3h0.1l0.3,0c0.7,0.1,1.4,0.2,2,0.4c0.1,0,0.1,0,0.2,0
			c1.5,0.5,2.9,1.4,4.1,2.5l4,4L25,22.6z M42.5,39.2L42,39.7c-4.1,4.1-10.8,4.1-15,0c0,0,0,0,0,0l-0.4-0.4
			C22.8,35.1,23,28.7,27,24.7l7.5-7.5l7.5,7.5C46,28.7,46.2,35,42.5,39.2z M49.2,8c0.1,0,0.3,0,0.4,0.1l0.2,0l0.2,0l0.4,0.1h0.1
			c1.9,0.4,3.6,1.3,5,2.6l0,0c0.1,0.1,0.2,0.2,0.3,0.3l0.1,0.1c0.1,0.1,0.2,0.2,0.3,0.3l0,0.1c0.1,0.1,0.2,0.2,0.3,0.4l0,0
			c0.7,1,1.3,2.1,1.7,3.3l0.1,0.3c1.1,3.7,0.1,7.7-2.7,10.5L48,33.7c0.5-4.1-1-8.2-3.9-11.1l-7.5-7.5l4-4c1.2-1.2,2.6-2,4.1-2.6h0
			l0.5-0.2l0.4-0.1l0.1,0l0.3-0.1l0.3,0l0.2,0c0.1,0,0.3,0,0.4-0.1h0C47.8,8,48.5,8,49.2,8L49.2,8z M65,46c-1.3,2.5-3.5,4.4-6.2,5.3
			c-1.1,0.4-2.2,0.5-3.3,0.5c-1.7,0-3.3-0.4-4.8-1.1c-2.5-1.3-4.4-3.5-5.3-6.2l-1-3.1c0-0.1,0.1-0.1,0.1-0.2l13.1-13.1
			c1.4-1.4,2.4-3,3.1-4.8l4.8,14.6C66.5,40.6,66.2,43.5,65,46z"/>
		<path class="st0" d="M106,36.9c0-0.2,0.2-0.4,0.4-0.4h6.2c0.2,0,0.4,0.2,0.4,0.4c0,0,0,0,0,0c0,0.2-0.2,0.4-0.4,0.4c0,0,0,0,0,0
			h-5.8v4.8h5.1c0.2,0.1,0.4,0.3,0.3,0.5c0,0.1-0.2,0.3-0.3,0.3h-5.1v4.8h5.8c0.2,0,0.4,0.2,0.4,0.4c0,0,0,0,0,0
			c0,0.2-0.2,0.4-0.4,0.4c0,0,0,0,0,0h-6.3c-0.2,0-0.4-0.2-0.4-0.4V36.9z"/>
		<path class="st0" d="M122.1,43.6c0-1.4-1.2-2.6-2.6-2.6l0,0c-1.4,0-2.6,1.2-2.6,2.6v4.7c0,0.1,0,0.1-0.1,0.2
			c-0.1,0.1-0.2,0.2-0.3,0.2h-0.1c-0.1,0-0.2-0.1-0.3-0.2c0,0,0,0,0-0.1c0,0,0,0,0,0v-7.7c0-0.2,0.2-0.4,0.4-0.4c0,0,0,0,0,0
			c0.2,0,0.4,0.2,0.4,0.4c0,0,0,0,0,0v0.8c1.2-1.5,3.4-1.6,4.8-0.4c0.8,0.7,1.2,1.6,1.2,2.6v4.6c0,0.2-0.2,0.4-0.5,0.4
			c-0.2,0-0.4-0.2-0.4-0.4L122.1,43.6z"/>
		<path class="st0" d="M132.9,43.5c0-1.5-1.2-2.5-2.7-2.5c-1.5,0-2.7,1-2.7,2.5v4.8c0,0,0,0.1,0,0.1s0,0.1,0,0.1
			c-0.1,0.1-0.1,0.2-0.3,0.2c0,0,0,0,0,0h-0.1c-0.1,0-0.2-0.1-0.3-0.1c0,0-0.1-0.1-0.1-0.1c0,0,0-0.1,0-0.1V36.9
			c0.1-0.2,0.3-0.4,0.5-0.3c0.1,0,0.3,0.2,0.3,0.3v4.5c0.7-0.8,1.6-1.2,2.7-1.2c2,0,3.5,1.4,3.5,3.3v4.7c0,0.2-0.2,0.4-0.4,0.4
			c-0.2,0-0.4-0.2-0.4-0.4L132.9,43.5z"/>
		<path class="st0" d="M145,40.5v7.6c0,0.2-0.2,0.4-0.4,0.4c-0.2,0-0.4-0.2-0.4-0.4v-1.3c-0.7,1-1.9,1.7-3.2,1.7
			c-2.3-0.1-4.1-2.1-4-4.4c0.1-2.2,1.9-3.9,4-4c1.3,0,2.4,0.6,3.2,1.7v-1.2c0-0.2,0.2-0.4,0.4-0.4C144.8,40.1,145,40.3,145,40.5z
			 M144.2,44.4c-0.1-1.8-1.6-3.1-3.4-3c-1.8,0.1-3.1,1.6-3,3.4c0.1,1.7,1.5,3,3.2,3C142.8,47.7,144.2,46.2,144.2,44.4z"/>
		<path class="st0" d="M154.5,43.6c0-1.4-1.2-2.6-2.6-2.6l0,0c-1.4,0-2.6,1.2-2.6,2.6v4.7c0,0.1,0,0.1-0.1,0.2
			c-0.1,0.1-0.2,0.2-0.3,0.2h-0.1c-0.1,0-0.2-0.1-0.3-0.2c0,0,0,0,0-0.1c0,0,0,0,0,0v-7.7c0-0.2,0.2-0.4,0.4-0.4
			c0.2,0,0.4,0.2,0.4,0.4c0,0,0,0,0,0v0.8c1.2-1.5,3.4-1.6,4.8-0.4c0.8,0.7,1.2,1.6,1.2,2.6v4.6c0,0.2-0.2,0.4-0.4,0.4
			s-0.4-0.2-0.4-0.4L154.5,43.6z"/>
		<path class="st0" d="M158.4,44.4c0-2.4,2-4.2,4.3-4.2c0,0,0,0,0,0c1,0,1.9,0.3,2.7,0.9c0.2,0.1,0.2,0.4,0.1,0.6c0,0,0,0,0,0
			c-0.1,0.2-0.4,0.2-0.6,0.1c-1.4-1.2-3.6-1.1-4.9,0.4c-1.2,1.4-1.1,3.6,0.4,4.9c0.6,0.6,1.5,0.8,2.3,0.8c0.8,0,1.6-0.3,2.2-0.7
			c0.2-0.1,0.4-0.1,0.6,0.1c0.1,0.2,0.1,0.4-0.1,0.6c0,0,0,0,0,0c-0.8,0.6-1.7,0.9-2.6,0.9C160.4,48.7,158.5,46.8,158.4,44.4
			C158.4,44.4,158.4,44.4,158.4,44.4z"/>
		<path class="st0" d="M168,44.4c-0.1-2.3,1.7-4.2,3.9-4.2c2.3-0.1,4.2,1.7,4.2,3.9l0,0v0.1c0,0.2-0.2,0.4-0.4,0.4c0,0,0,0,0,0h-7
			c0,1.8,1.5,3.2,3.3,3.3c1.1,0,2.2-0.6,2.7-1.5c0.1-0.2,0.4-0.2,0.6-0.1c0.2,0.1,0.3,0.4,0.1,0.6c-0.7,1.2-2,1.9-3.4,1.9
			C169.8,48.6,168,46.7,168,44.4C168,44.4,168,44.4,168,44.4z M168.9,43.7h6.4c-0.3-1.6-1.6-2.7-3.2-2.7
			C170.6,40.9,169.2,42.1,168.9,43.7L168.9,43.7z"/>
		<path class="st0" d="M187.8,42.8l-4.1-5.5c-0.1-0.2-0.1-0.4,0.1-0.6c0.2-0.1,0.4-0.1,0.6,0c0,0,0,0,0,0l3.8,5.2l3.8-5.2
			c0.1-0.2,0.4-0.2,0.6-0.1c0,0,0,0,0,0c0.2,0.1,0.2,0.4,0.1,0.6c0,0,0,0,0,0l-4,5.5v5.4c0,0.2-0.2,0.4-0.4,0.4c0,0,0,0,0,0
			c-0.2,0-0.4-0.2-0.4-0.4V42.8z"/>
		<path class="st0" d="M196.5,40.1c2.2,0,4,1.9,4,4.2s-1.8,4.2-4,4.2c-2.2,0-4-1.9-4-4.2S194.3,40.1,196.5,40.1z M196.5,47.8
			c1.8-0.1,3.2-1.6,3.2-3.4c0-1.9-1.5-3.4-3.2-3.4s-3.2,1.5-3.2,3.4C193.3,46.2,194.7,47.7,196.5,47.8z"/>
		<path class="st0" d="M203.2,40.5c0-0.2,0.2-0.4,0.4-0.4s0.4,0.2,0.4,0.4v4.6c-0.1,1.4,1.1,2.7,2.5,2.7c1.4,0.1,2.7-1.1,2.7-2.5
			c0-0.1,0-0.1,0-0.2v-4.6c0-0.2,0.2-0.4,0.4-0.4c0.2,0,0.4,0.2,0.4,0.4c0,0,0,0,0,0v4.6c0.1,1.9-1.4,3.5-3.3,3.6
			c-1.9,0.1-3.5-1.4-3.6-3.3c0-0.1,0-0.2,0-0.2L203.2,40.5z"/>
		<path class="st0" d="M214,40.6c0-0.2,0.2-0.4,0.4-0.4c0,0,0,0,0,0c0.2,0,0.4,0.2,0.4,0.4c0,0,0,0,0,0v1.9c0-0.1,0.1-0.1,0.1-0.2
			c0.6-1,1.8-2.1,3.4-2.1c0.2,0,0.4,0.2,0.4,0.4c0,0,0,0,0,0c0,0.2-0.2,0.4-0.4,0.4c-1,0-1.9,0.5-2.5,1.4c-0.4,0.6-0.8,1.3-1,2
			c0,0,0,0.1,0,0.1v3.7c0,0.2-0.2,0.4-0.4,0.4c0,0,0,0,0,0c-0.2,0-0.4-0.2-0.4-0.4c0,0,0,0,0,0L214,40.6z"/>
		<path class="st0" d="M230.9,48.4C230.9,48.4,230.9,48.4,230.9,48.4L230.9,48.4l-4.7-11.2c-0.1-0.2,0-0.5,0.2-0.6
			c0.2-0.1,0.5,0,0.6,0.2c0,0,0,0,0,0l4.3,10.3l4.3-10.3c0.1-0.2,0.3-0.3,0.5-0.2c0,0,0,0,0,0c0.2,0.1,0.3,0.3,0.2,0.6l-4.7,11.1
			c0,0.2-0.1,0.3-0.2,0.3l0,0c0,0-0.1,0-0.2,0c-0.1,0-0.1,0-0.2,0l0,0C231.1,48.6,231,48.5,230.9,48.4z"/>
		<path class="st0" d="M239.4,37.8c0.1-0.2,0.3-0.4,0.5-0.3c0.1,0,0.3,0.2,0.3,0.3v0.4c0.1,0.2-0.1,0.5-0.3,0.5
			c-0.2,0.1-0.5-0.1-0.5-0.3c0-0.1,0-0.2,0-0.2V37.8z M239.4,40.5c0-0.2,0.2-0.4,0.4-0.4c0,0,0,0,0,0c0.2,0,0.4,0.2,0.4,0.4
			c0,0,0,0,0,0v7.6c-0.1,0.2-0.3,0.4-0.5,0.3c-0.1,0-0.3-0.2-0.3-0.3L239.4,40.5z"/>
		<path class="st0" d="M243.6,46.8c0.2-0.2,0.4-0.2,0.6-0.1c0.7,0.6,1.6,0.9,2.6,1c0.6,0,1.1-0.2,1.6-0.5c0.4-0.2,0.6-0.6,0.6-1
			c0-0.4-0.2-0.8-0.6-1c-0.5-0.3-1.2-0.6-1.8-0.6h0c-0.7-0.1-1.3-0.3-1.9-0.7c-0.6-0.3-0.9-0.9-0.9-1.5c0-0.7,0.4-1.3,0.9-1.7
			c0.6-0.4,1.3-0.6,2.1-0.6c0.9,0,1.8,0.4,2.5,0.9c0.2,0.1,0.2,0.4,0.1,0.6c-0.1,0.2-0.4,0.2-0.6,0.1c0,0,0,0,0,0
			c-0.6-0.4-1.2-0.8-2.1-0.8c-0.6,0-1.1,0.1-1.6,0.5c-0.3,0.2-0.5,0.6-0.5,1c0,0.3,0.2,0.7,0.5,0.8c0.5,0.3,1.1,0.5,1.7,0.6h0
			c0.7,0.1,1.4,0.3,2.1,0.7c0.6,0.4,0.9,1,1,1.7c0,0.7-0.4,1.3-1,1.7c-0.6,0.4-1.4,0.7-2.1,0.7c-1.1,0-2.3-0.5-3.1-1.2
			C243.5,47.3,243.5,47,243.6,46.8C243.6,46.8,243.6,46.8,243.6,46.8z"/>
		<path class="st0" d="M252.7,37.8c0.1-0.2,0.3-0.4,0.5-0.3c0.1,0,0.3,0.2,0.3,0.3v0.4c0.1,0.2-0.1,0.5-0.3,0.5
			c-0.2,0.1-0.5-0.1-0.5-0.3c0-0.1,0-0.2,0-0.2V37.8z M252.7,40.5c0-0.2,0.2-0.4,0.4-0.4c0,0,0,0,0,0c0.2,0,0.4,0.2,0.4,0.4
			c0,0,0,0,0,0v7.6c-0.1,0.2-0.3,0.4-0.5,0.3c-0.1,0-0.3-0.2-0.3-0.3L252.7,40.5z"/>
		<path class="st0" d="M261.2,40.1c2.2,0,4,1.9,4,4.2s-1.8,4.2-4,4.2c-2.2,0-4-1.9-4-4.2S259,40.1,261.2,40.1z M261.2,47.8
			c1.8-0.1,3.2-1.6,3.2-3.4c0-1.9-1.4-3.4-3.2-3.4c-1.7,0-3.2,1.5-3.2,3.4C258,46.2,259.4,47.7,261.2,47.8z"/>
		<path class="st0" d="M274.4,43.6c0-1.4-1.2-2.6-2.6-2.6c-1.4,0-2.6,1.2-2.6,2.6v4.7c0,0.2-0.2,0.3-0.4,0.3h-0.1
			c-0.1,0-0.2-0.1-0.3-0.2c0,0,0,0,0-0.1c0,0,0,0,0,0v-7.7c0-0.2,0.2-0.4,0.4-0.4s0.4,0.2,0.4,0.4v0.8c1.2-1.5,3.4-1.6,4.8-0.4
			c0.8,0.7,1.2,1.6,1.2,2.6v4.6c0,0.2-0.2,0.4-0.4,0.4s-0.4-0.2-0.4-0.4L274.4,43.6z"/>
	</g>
</g>
</svg>
