<?xml version="1.0" encoding="utf-8"?>
<!-- Generator: Adobe Illustrator 22.1.0, SVG Export Plug-In . SVG Version: 6.00 Build 0)  -->
<svg version="1.1" id="Layer_1" xmlns="http://www.w3.org/2000/svg" xmlns:xlink="http://www.w3.org/1999/xlink" x="0px" y="0px"
	 viewBox="0 0 100 100" style="enable-background:new 0 0 100 100;" xml:space="preserve">
<style type="text/css">
	.st0{fill:#CDD5D7;}
	.st1{fill:#D63039;}
	.st2{fill:#E5E8EC;}
	.st3{opacity:0.5;}
	.st4{fill:#932434;}
	.st5{fill:#FFFFFF;}
</style>
<rect x="8.1" y="40.8" class="st0" width="83.3" height="48.1"/>
<path class="st0" d="M8.1,40.8h4.1h33.5c1.1,0,2.6,0,4.1,0s3,0,4.1,0h33.5h4.1L81,31.9l-7.3-6.2c-0.9-0.7-2-1.7-3.1-2.7l-9.7-8.3
	l-8-6.8c-1.7-1.5-4.5-1.5-6.2,0l-8,6.8L29,23c-1.1,1-2.3,1.9-3.1,2.7l-7.3,6.2L8.1,40.8z"/>
<rect x="13.1" y="13.2" class="st1" width="72.8" height="63.6"/>
<path class="st2" d="M91.3,40.9L81,49.7l-7.3,6.2c-0.9,0.7-2,1.7-3.1,2.7l-7.3,6.2H36.2l-7.3-6.2c-1.1-1-2.3-1.9-3.1-2.7l-7.3-6.2
	L8.1,40.9l0,0v48h83.4v-48H91.3z"/>
<g>
	<path class="st0" d="M25.8,73.1l-7.3,6.5L8.1,88.9l0,0L18.5,80l7.3-6.3c0.9-0.7,2-1.7,3.1-2.7l7.2-6.2l-0.5-0.5l-6.7,6
		C27.8,71.3,26.6,72.3,25.8,73.1z"/>
	<path class="st0" d="M73.7,73.1c-0.9-0.8-2-1.8-3.1-2.8l-6.7-6l-0.5,0.5l7.2,6.2c1.1,1,2.3,1.9,3.1,2.7L81,80l10.4,9L81,79.6
		L73.7,73.1z"/>
</g>
<g class="st3">
	<path class="st4" d="M46.2,57.5v-1.4h3.2V59c-0.6,0.4-1.2,0.7-1.7,0.9c-0.5,0.2-1,0.2-1.7,0.2c-0.8,0-1.5-0.1-2-0.4
		c-0.5-0.3-0.9-0.7-1.2-1.2c-0.3-0.5-0.4-1.2-0.4-1.9c0-0.7,0.2-1.4,0.5-1.9s0.8-1,1.3-1.3c0.5-0.2,1.1-0.3,1.9-0.3
		c0.8,0,1.3,0.1,1.7,0.2c0.4,0.1,0.7,0.3,0.9,0.6c0.2,0.3,0.4,0.6,0.6,1.1l-2,0.4c-0.1-0.3-0.2-0.5-0.4-0.6
		c-0.2-0.1-0.5-0.2-0.8-0.2c-0.5,0-0.8,0.2-1.1,0.5c-0.3,0.3-0.4,0.8-0.4,1.5c0,0.7,0.1,1.3,0.4,1.6c0.3,0.3,0.7,0.5,1.2,0.5
		c0.2,0,0.5,0,0.7-0.1c0.2-0.1,0.5-0.2,0.7-0.3v-0.6H46.2z"/>
	<path class="st4" d="M50.7,53.2h3.9c0.7,0,1.2,0.2,1.5,0.5c0.4,0.3,0.5,0.7,0.5,1.2c0,0.4-0.1,0.7-0.4,1c-0.2,0.2-0.4,0.3-0.7,0.5
		c0.5,0.1,0.8,0.3,1.1,0.6c0.2,0.3,0.3,0.6,0.3,1.1c0,0.4-0.1,0.7-0.2,1c-0.2,0.3-0.4,0.5-0.7,0.7c-0.2,0.1-0.4,0.2-0.8,0.2
		C54.8,60,54.5,60,54.3,60h-3.6V53.2z M52.8,55.9h0.9c0.3,0,0.6-0.1,0.7-0.2c0.1-0.1,0.2-0.3,0.2-0.5c0-0.2-0.1-0.4-0.2-0.5
		c-0.1-0.1-0.4-0.2-0.7-0.2h-0.9V55.9z M52.8,58.5h1.1c0.4,0,0.6-0.1,0.8-0.2s0.2-0.3,0.2-0.5c0-0.2-0.1-0.4-0.2-0.5
		c-0.1-0.1-0.4-0.2-0.8-0.2h-1.1V58.5z"/>
</g>
<g>
	<path class="st5" d="M45.7,56.3v-1.4h3.2v2.9c-0.6,0.4-1.2,0.7-1.7,0.9c-0.5,0.2-1,0.2-1.7,0.2c-0.8,0-1.5-0.1-2-0.4
		c-0.5-0.3-0.9-0.7-1.2-1.2c-0.3-0.5-0.4-1.2-0.4-1.9c0-0.7,0.2-1.4,0.5-1.9c0.3-0.5,0.8-1,1.3-1.3c0.5-0.2,1.1-0.3,1.9-0.3
		c0.8,0,1.3,0.1,1.7,0.2c0.4,0.1,0.7,0.3,0.9,0.6c0.2,0.3,0.4,0.6,0.6,1.1l-2,0.4c-0.1-0.3-0.2-0.5-0.4-0.6
		c-0.2-0.1-0.5-0.2-0.8-0.2c-0.5,0-0.8,0.2-1.1,0.5c-0.3,0.3-0.4,0.8-0.4,1.5c0,0.7,0.1,1.3,0.4,1.6c0.3,0.3,0.7,0.5,1.2,0.5
		c0.2,0,0.5,0,0.7-0.1s0.5-0.2,0.7-0.3v-0.6H45.7z"/>
	<path class="st5" d="M50.2,52h3.9c0.7,0,1.2,0.2,1.5,0.5c0.4,0.3,0.5,0.7,0.5,1.2c0,0.4-0.1,0.7-0.4,1c-0.2,0.2-0.4,0.3-0.7,0.5
		c0.5,0.1,0.8,0.3,1.1,0.6c0.2,0.3,0.3,0.6,0.3,1.1c0,0.4-0.1,0.7-0.2,1c-0.2,0.3-0.4,0.5-0.7,0.7c-0.2,0.1-0.4,0.2-0.8,0.2
		c-0.5,0.1-0.8,0.1-0.9,0.1h-3.6V52z M52.3,54.7h0.9c0.3,0,0.6-0.1,0.7-0.2c0.1-0.1,0.2-0.3,0.2-0.5c0-0.2-0.1-0.4-0.2-0.5
		c-0.1-0.1-0.4-0.2-0.7-0.2h-0.9V54.7z M52.3,57.3h1.1c0.4,0,0.6-0.1,0.8-0.2c0.1-0.1,0.2-0.3,0.2-0.5c0-0.2-0.1-0.4-0.2-0.5
		C54,56,53.7,56,53.4,56h-1.1V57.3z"/>
</g>
<g class="st3">
	<path class="st4" d="M35,30.6l-6.8-1.2c0.6-2.2,1.6-3.8,3.2-5s3.9-1.7,6.8-1.7c3.4,0,5.8,0.6,7.3,1.9s2.2,2.8,2.2,4.7
		c0,1.1-0.3,2.1-0.9,3s-1.5,1.7-2.8,2.4c1,0.2,1.8,0.5,2.3,0.9c0.9,0.5,1.5,1.2,2,2.1s0.7,1.9,0.7,3.1c0,1.5-0.4,2.9-1.2,4.3
		s-1.9,2.4-3.4,3.2s-3.4,1.1-5.8,1.1c-2.3,0-4.2-0.3-5.5-0.8s-2.5-1.4-3.3-2.4s-1.5-2.4-2-4l7.2-0.9c0.3,1.4,0.7,2.4,1.3,3
		s1.3,0.8,2.3,0.8c1,0,1.8-0.4,2.4-1.1s1-1.6,1-2.8c0-1.2-0.3-2.1-0.9-2.8s-1.5-1-2.5-1c-0.6,0-1.3,0.1-2.3,0.4l0.4-5.1
		c0.4,0.1,0.7,0.1,0.9,0.1c0.9,0,1.7-0.3,2.3-0.9s0.9-1.3,0.9-2.1c0-0.8-0.2-1.4-0.7-1.9s-1.1-0.7-1.9-0.7c-0.8,0-1.5,0.3-2.1,0.8
		S35.2,29.3,35,30.6z"/>
	<path class="st4" d="M52.1,35.9c0-4.9,0.9-8.3,2.6-10.3s4.5-2.9,8.1-2.9c1.7,0,3.2,0.2,4.3,0.6s2,1,2.7,1.7s1.3,1.4,1.7,2.2
		s0.7,1.6,1,2.6c0.5,1.9,0.7,3.9,0.7,6c0,4.7-0.8,8.1-2.4,10.3s-4.3,3.3-8.2,3.3c-2.2,0-3.9-0.3-5.3-1s-2.4-1.7-3.3-3
		c-0.6-0.9-1.1-2.2-1.5-3.9S52.1,37.9,52.1,35.9z M59.2,35.9c0,3.3,0.3,5.5,0.9,6.7s1.4,1.8,2.5,1.8c0.7,0,1.4-0.3,1.9-0.8
		s0.9-1.3,1.2-2.4s0.4-2.8,0.4-5.2c0-3.4-0.3-5.7-0.9-6.9s-1.5-1.8-2.6-1.8c-1.2,0-2,0.6-2.6,1.8S59.2,32.7,59.2,35.9z"/>
</g>
<g>
	<path class="st5" d="M34,29.6l-6.8-1.2c0.6-2.2,1.6-3.8,3.2-5s3.9-1.7,6.8-1.7c3.4,0,5.8,0.6,7.3,1.9s2.2,2.8,2.2,4.7
		c0,1.1-0.3,2.1-0.9,3s-1.5,1.7-2.8,2.4c1,0.2,1.8,0.5,2.3,0.9c0.9,0.5,1.5,1.2,2,2.1s0.7,1.9,0.7,3.1c0,1.5-0.4,2.9-1.2,4.3
		s-1.9,2.4-3.4,3.2s-3.4,1.1-5.8,1.1c-2.3,0-4.2-0.3-5.5-0.8s-2.5-1.4-3.3-2.4s-1.5-2.4-2-4l7.2-0.9c0.3,1.4,0.7,2.4,1.3,3
		s1.3,0.8,2.3,0.8c1,0,1.8-0.4,2.4-1.1s1-1.6,1-2.8c0-1.2-0.3-2.1-0.9-2.8s-1.5-1-2.5-1c-0.6,0-1.3,0.1-2.3,0.4l0.4-5.1
		c0.4,0.1,0.7,0.1,0.9,0.1c0.9,0,1.7-0.3,2.3-0.9s0.9-1.3,0.9-2.1c0-0.8-0.2-1.4-0.7-1.9s-1.1-0.7-1.9-0.7c-0.8,0-1.5,0.3-2.1,0.8
		S34.2,28.3,34,29.6z"/>
	<path class="st5" d="M51.1,34.9c0-4.9,0.9-8.3,2.6-10.3s4.5-2.9,8.1-2.9c1.7,0,3.2,0.2,4.3,0.6s2,1,2.7,1.7s1.3,1.4,1.7,2.2
		s0.7,1.6,1,2.6c0.5,1.9,0.7,3.9,0.7,6c0,4.7-0.8,8.1-2.4,10.3s-4.3,3.3-8.2,3.3c-2.2,0-3.9-0.3-5.3-1s-2.4-1.7-3.3-3
		c-0.6-0.9-1.1-2.2-1.5-3.9S51.1,36.9,51.1,34.9z M58.2,34.9c0,3.3,0.3,5.5,0.9,6.7s1.4,1.8,2.5,1.8c0.7,0,1.4-0.3,1.9-0.8
		s0.9-1.3,1.2-2.4s0.4-2.8,0.4-5.2c0-3.4-0.3-5.7-0.9-6.9s-1.5-1.8-2.6-1.8c-1.2,0-2,0.6-2.6,1.8S58.2,31.7,58.2,34.9z"/>
</g>
</svg>
