<?xml version="1.0" encoding="utf-8"?>
<!-- Generator: Adobe Illustrator 22.1.0, SVG Export Plug-In . SVG Version: 6.00 Build 0)  -->
<svg version="1.1" id="Layer_1" xmlns="http://www.w3.org/2000/svg" xmlns:xlink="http://www.w3.org/1999/xlink" x="0px" y="0px"
	 viewBox="0 0 100 100" style="enable-background:new 0 0 100 100;" xml:space="preserve">
<style type="text/css">
	.st0{fill:#CDD5D7;}
	.st1{fill:#01C6DA;}
	.st2{fill:#E5E8EC;}
	.st3{opacity:0.5;fill:#0482AD;}
	.st4{fill:#FFFFFF;}
	.st5{opacity:0.5;}
	.st6{fill:#0482AD;}
</style>
<rect x="8.1" y="40.8" class="st0" width="83.3" height="48.1"/>
<path class="st0" d="M8.1,40.8h4.1h33.5c1.1,0,2.6,0,4.1,0s3,0,4.1,0h33.5h4.1L81,31.9l-7.3-6.2c-0.9-0.7-2-1.7-3.1-2.7l-9.7-8.3
	l-8-6.8c-1.7-1.5-4.5-1.5-6.2,0l-8,6.8L29,23c-1.1,1-2.3,1.9-3.1,2.7l-7.3,6.2L8.1,40.8z"/>
<rect x="13.1" y="13.2" class="st1" width="72.8" height="63.6"/>
<path class="st2" d="M91.3,40.9L81,49.7l-7.3,6.2c-0.9,0.7-2,1.7-3.1,2.7l-7.3,6.2H36.2l-7.3-6.2c-1.1-1-2.3-1.9-3.1-2.7l-7.3-6.2
	L8.1,40.9l0,0v48h83.4v-48H91.3z"/>
<g>
	<path class="st0" d="M25.8,73.1l-7.3,6.5L8.1,88.9l0,0L18.5,80l7.3-6.3c0.9-0.7,2-1.7,3.1-2.7l7.2-6.2l-0.5-0.5l-6.7,6
		C27.8,71.3,26.6,72.3,25.8,73.1z"/>
	<path class="st0" d="M73.7,73.1c-0.9-0.8-2-1.8-3.1-2.8l-6.7-6l-0.5,0.5l7.2,6.2c1.1,1,2.3,1.9,3.1,2.7L81,80l10.4,9L81,79.6
		L73.7,73.1z"/>
</g>
<g>
	<g>
		<path class="st3" d="M43.2,22.3h17V28H48.7l-0.6,3.9c0.8-0.4,1.6-0.7,2.4-0.8s1.5-0.3,2.3-0.3c2.6,0,4.7,0.8,6.3,2.3
			s2.4,3.5,2.4,5.9c0,1.7-0.4,3.3-1.2,4.8s-2,2.7-3.5,3.5s-3.5,1.2-5.8,1.2c-1.7,0-3.2-0.2-4.4-0.5s-2.2-0.8-3.1-1.4
			s-1.5-1.4-2.1-2.2s-1-1.8-1.3-3l7.2-0.8c0.2,1.2,0.6,2,1.2,2.6s1.4,0.9,2.3,0.9c1,0,1.8-0.4,2.5-1.1s1-1.9,1-3.4
			c0-1.5-0.3-2.7-1-3.4s-1.5-1.1-2.6-1.1c-0.7,0-1.4,0.2-2,0.5c-0.5,0.2-1,0.7-1.6,1.3l-6.1-0.9L43.2,22.3z"/>
	</g>
	<g>
		<path class="st4" d="M40.8,21.5h17v5.7H46.3l-0.6,3.9c0.8-0.4,1.6-0.7,2.4-0.8s1.5-0.3,2.3-0.3c2.6,0,4.7,0.8,6.3,2.3
			s2.4,3.5,2.4,5.9c0,1.7-0.4,3.3-1.2,4.8s-2,2.7-3.5,3.5s-3.5,1.2-5.8,1.2c-1.7,0-3.2-0.2-4.4-0.5s-2.2-0.8-3.1-1.4
			s-1.5-1.4-2.1-2.2s-1-1.8-1.3-3l7.2-0.8c0.2,1.2,0.6,2,1.2,2.6s1.4,0.9,2.3,0.9c1,0,1.8-0.4,2.5-1.1s1-1.9,1-3.4
			c0-1.5-0.3-2.7-1-3.4s-1.5-1.1-2.6-1.1c-0.7,0-1.4,0.2-2,0.5c-0.5,0.2-1,0.7-1.6,1.3l-6.1-0.9L40.8,21.5z"/>
	</g>
</g>
<g>
	<g class="st5">
		<path class="st6" d="M46.2,57.5v-1.4h3.2V59c-0.6,0.4-1.2,0.7-1.7,0.9c-0.5,0.2-1,0.2-1.7,0.2c-0.8,0-1.5-0.1-2-0.4
			c-0.5-0.3-0.9-0.7-1.2-1.2c-0.3-0.5-0.4-1.2-0.4-1.9c0-0.7,0.2-1.4,0.5-1.9s0.8-1,1.3-1.3c0.5-0.2,1.1-0.3,1.9-0.3
			c0.8,0,1.3,0.1,1.7,0.2c0.4,0.1,0.7,0.3,0.9,0.6c0.2,0.3,0.4,0.6,0.6,1.1l-2,0.4c-0.1-0.3-0.2-0.5-0.4-0.6
			c-0.2-0.1-0.5-0.2-0.8-0.2c-0.5,0-0.8,0.2-1.1,0.5c-0.3,0.3-0.4,0.8-0.4,1.5c0,0.7,0.1,1.3,0.4,1.6c0.3,0.3,0.7,0.5,1.2,0.5
			c0.2,0,0.5,0,0.7-0.1c0.2-0.1,0.5-0.2,0.7-0.3v-0.6H46.2z"/>
		<path class="st6" d="M50.7,53.2h3.9c0.7,0,1.2,0.2,1.5,0.5c0.4,0.3,0.5,0.7,0.5,1.2c0,0.4-0.1,0.7-0.4,1c-0.2,0.2-0.4,0.3-0.7,0.5
			c0.5,0.1,0.8,0.3,1.1,0.6c0.2,0.3,0.3,0.6,0.3,1.1c0,0.4-0.1,0.7-0.2,1c-0.2,0.3-0.4,0.5-0.7,0.7c-0.2,0.1-0.4,0.2-0.8,0.2
			C54.8,60,54.5,60,54.3,60h-3.6V53.2z M52.8,55.9h0.9c0.3,0,0.6-0.1,0.7-0.2c0.1-0.1,0.2-0.3,0.2-0.5c0-0.2-0.1-0.4-0.2-0.5
			c-0.1-0.1-0.4-0.2-0.7-0.2h-0.9V55.9z M52.8,58.5h1.1c0.4,0,0.6-0.1,0.8-0.2s0.2-0.3,0.2-0.5c0-0.2-0.1-0.4-0.2-0.5
			c-0.1-0.1-0.4-0.2-0.8-0.2h-1.1V58.5z"/>
	</g>
	<g>
		<path class="st4" d="M45.7,56.3v-1.4h3.2v2.9c-0.6,0.4-1.2,0.7-1.7,0.9c-0.5,0.2-1,0.2-1.7,0.2c-0.8,0-1.5-0.1-2-0.4
			c-0.5-0.3-0.9-0.7-1.2-1.2c-0.3-0.5-0.4-1.2-0.4-1.9c0-0.7,0.2-1.4,0.5-1.9c0.3-0.5,0.8-1,1.3-1.3c0.5-0.2,1.1-0.3,1.9-0.3
			c0.8,0,1.3,0.1,1.7,0.2c0.4,0.1,0.7,0.3,0.9,0.6c0.2,0.3,0.4,0.6,0.6,1.1l-2,0.4c-0.1-0.3-0.2-0.5-0.4-0.6
			c-0.2-0.1-0.5-0.2-0.8-0.2c-0.5,0-0.8,0.2-1.1,0.5c-0.3,0.3-0.4,0.8-0.4,1.5c0,0.7,0.1,1.3,0.4,1.6c0.3,0.3,0.7,0.5,1.2,0.5
			c0.2,0,0.5,0,0.7-0.1s0.5-0.2,0.7-0.3v-0.6H45.7z"/>
		<path class="st4" d="M50.2,52h3.9c0.7,0,1.2,0.2,1.5,0.5c0.4,0.3,0.5,0.7,0.5,1.2c0,0.4-0.1,0.7-0.4,1c-0.2,0.2-0.4,0.3-0.7,0.5
			c0.5,0.1,0.8,0.3,1.1,0.6c0.2,0.3,0.3,0.6,0.3,1.1c0,0.4-0.1,0.7-0.2,1c-0.2,0.3-0.4,0.5-0.7,0.7c-0.2,0.1-0.4,0.2-0.8,0.2
			c-0.5,0.1-0.8,0.1-0.9,0.1h-3.6V52z M52.3,54.7h0.9c0.3,0,0.6-0.1,0.7-0.2c0.1-0.1,0.2-0.3,0.2-0.5c0-0.2-0.1-0.4-0.2-0.5
			c-0.1-0.1-0.4-0.2-0.7-0.2h-0.9V54.7z M52.3,57.3h1.1c0.4,0,0.6-0.1,0.8-0.2c0.1-0.1,0.2-0.3,0.2-0.5c0-0.2-0.1-0.4-0.2-0.5
			C54,56,53.7,56,53.4,56h-1.1V57.3z"/>
	</g>
</g>
</svg>
