<?xml version="1.0" encoding="utf-8"?>
<!-- Generator: Adobe Illustrator 16.0.0, SVG Export Plug-In . SVG Version: 6.00 Build 0)  -->
<!DOCTYPE svg PUBLIC "-//W3C//DTD SVG 1.1//EN" "http://www.w3.org/Graphics/SVG/1.1/DTD/svg11.dtd">
<svg version="1.1" id="Layer_1" xmlns="http://www.w3.org/2000/svg" xmlns:xlink="http://www.w3.org/1999/xlink" x="0px" y="0px"
	 width="77px" height="11px" viewBox="0 0 77 11" style="enable-background:new 0 0 77 11;" xml:space="preserve">
<style type="text/css">
<![CDATA[
	.st0{fill:#FFFFFF;}
]]>
</style>
<g>
	<path class="st0" d="M41.7,3.9c-0.1,0-0.2-0.1-0.3-0.1c-0.1,0-0.2,0-0.3,0h-1l-0.3,1.2h1c0.2,0,0.3,0,0.4,0c0.1,0,0.2-0.1,0.3-0.1
		c0.1-0.1,0.1-0.1,0.2-0.2c0-0.1,0.1-0.2,0.1-0.3c0-0.1,0-0.2,0-0.3C41.8,4.1,41.8,4,41.7,3.9z"/>
	<path class="st0" d="M34.5,4c-0.2-0.1-0.4-0.1-0.6-0.1H33l-0.7,3.4h0.8c0.1,0,0.1,0,0.2,0c0.1,0,0.2,0,0.3-0.1S33.9,7.1,34,7
		s0.2-0.2,0.4-0.3c0.1-0.1,0.2-0.3,0.3-0.5c0.1-0.2,0.2-0.4,0.2-0.7C35,5.3,35,5,35,4.8S35,4.4,34.9,4.3C34.8,4.2,34.7,4,34.5,4z"/>
	<path class="st0" d="M41.5,6.1C41.4,6,41.3,6,41.2,5.9c-0.1,0-0.2,0-0.3,0h-1.2l-0.3,1.4h1.3c0.1,0,0.2,0,0.3-0.1
		c0.1,0,0.2-0.1,0.3-0.2c0.1-0.1,0.1-0.1,0.2-0.2c0.1-0.1,0.1-0.2,0.1-0.3c0-0.1,0-0.2,0-0.3C41.6,6.2,41.5,6.1,41.5,6.1z"/>
	<path class="st0" d="M51.4,0H51H0v11h51h0.4H77V0H51.4z M7.2,6H4.6L4.3,7.2h2.8L6.9,8.2H3l1.1-5.3H8l-0.2,1H5.1L4.8,5h2.6L7.2,6z
		 M12,8.2h-1.1L9.4,4.7h0L8.7,8.2H7.6l1.1-5.3h1.1l1.5,3.5h0l0.7-3.5h1.1L12,8.2z M14.5,6.4c0,0.1,0.1,0.3,0.1,0.4
		c0.1,0.1,0.1,0.2,0.2,0.3c0.1,0.1,0.2,0.1,0.3,0.2c0.1,0,0.3,0.1,0.5,0.1c0.2,0,0.3,0,0.5-0.1c0.2,0,0.3-0.1,0.4-0.2
		c0.1-0.1,0.2-0.2,0.3-0.3c0.1-0.1,0.2-0.3,0.2-0.5h-1.2l0.2-0.9h2.2l-0.6,2.9h-0.7V7.6c-0.1,0.1-0.3,0.2-0.4,0.3
		c-0.1,0.1-0.3,0.2-0.4,0.2c-0.1,0.1-0.3,0.1-0.4,0.1c-0.1,0-0.3,0-0.4,0c-0.3,0-0.5,0-0.7-0.1C14.4,8.1,14.2,8,14,7.9
		c-0.2-0.1-0.3-0.3-0.4-0.4c-0.1-0.2-0.2-0.3-0.3-0.6c-0.1-0.2-0.1-0.4-0.1-0.7c0-0.2,0-0.5,0.1-0.7c0.1-0.3,0.1-0.5,0.2-0.8
		c0.1-0.2,0.2-0.5,0.4-0.7c0.1-0.2,0.3-0.4,0.5-0.6c0.2-0.2,0.4-0.3,0.6-0.4c0.2-0.1,0.4-0.2,0.7-0.3c0.2-0.1,0.5-0.1,0.8-0.1
		c0.2,0,0.4,0,0.5,0.1c0.2,0,0.3,0.1,0.5,0.2c0.1,0.1,0.3,0.2,0.4,0.3s0.2,0.2,0.3,0.4c0.1,0.1,0.1,0.3,0.2,0.5c0,0.2,0,0.4,0,0.5
		h-1.1c0-0.1,0-0.3-0.1-0.4c0-0.1-0.1-0.2-0.2-0.3s-0.2-0.1-0.3-0.2c-0.1,0-0.2-0.1-0.4-0.1c-0.3,0-0.5,0.1-0.7,0.2
		c-0.2,0.1-0.4,0.2-0.5,0.4c-0.2,0.2-0.3,0.4-0.4,0.6c-0.1,0.2-0.2,0.4-0.2,0.7c0,0.1,0,0.3-0.1,0.4C14.4,6.1,14.4,6.3,14.5,6.4z
		 M18.8,8.2l1.1-5.3H21l-1.1,5.3H18.8z M24.2,8.2l-1.5-3.5h0L22,8.2h-1.1L22,2.9h1.1l1.5,3.5h0l0.7-3.5h1.1l-1.1,5.3H24.2z M30.5,6
		H28l-0.3,1.3h2.8l-0.2,0.9h-3.9l1.1-5.3h3.9l-0.2,1h-2.8L28.2,5h2.6L30.5,6z M36.1,5.4c-0.1,0.4-0.2,0.8-0.4,1.2
		c-0.2,0.3-0.4,0.6-0.7,0.9c-0.3,0.2-0.6,0.4-0.9,0.5c-0.4,0.1-0.8,0.2-1.2,0.2h-1.9l1.1-5.3H34c0.4,0,0.8,0.1,1.1,0.2
		c0.3,0.1,0.6,0.3,0.7,0.5C36,3.8,36.1,4,36.1,4.3C36.2,4.6,36.2,5,36.1,5.4z M43,4.3c0,0.1-0.1,0.2-0.1,0.3s-0.1,0.2-0.2,0.3
		c-0.1,0.1-0.1,0.2-0.2,0.2s-0.2,0.1-0.3,0.2c0.1,0.1,0.2,0.1,0.3,0.2c0.1,0.1,0.1,0.2,0.2,0.3c0,0.1,0.1,0.2,0.1,0.3
		c0,0.1,0,0.2,0,0.4c0,0.1-0.1,0.3-0.1,0.4c-0.1,0.1-0.1,0.3-0.2,0.4c-0.1,0.1-0.2,0.2-0.3,0.3c-0.1,0.1-0.3,0.2-0.4,0.3
		c-0.2,0.1-0.3,0.1-0.5,0.2c-0.2,0-0.4,0.1-0.6,0.1h-2.6l1.1-5.3h1.9c0.1,0,0.2,0,0.4,0c0.1,0,0.3,0,0.4,0s0.3,0,0.4,0.1
		c0.1,0,0.2,0.1,0.3,0.1c0.1,0.1,0.2,0.1,0.2,0.2c0.1,0.1,0.1,0.2,0.2,0.3c0,0.1,0.1,0.2,0.1,0.3C43.1,4,43.1,4.2,43,4.3z M46.3,6
		l-0.5,2.1h-1.2L45.2,6l-1.4-3.1h1.4L46,5l1.7-2.1H49L46.3,6z M76.1,10.1H52V1h24.1V10.1z"/>
	<polygon class="st0" points="57.7,8.4 59.2,8.4 59.2,3.7 60.8,3.7 60.8,2.6 56.1,2.6 56.1,3.7 57.7,3.7 	"/>
	<path class="st0" d="M64.3,7.3c-0.1,0-0.2,0.1-0.3,0.1s-0.2,0-0.3,0c-0.2,0-0.3,0-0.5-0.1s-0.3-0.1-0.4-0.2
		c-0.1-0.1-0.2-0.2-0.3-0.3s-0.1-0.3-0.1-0.5H61c0,0.2,0,0.5,0.1,0.7c0.1,0.2,0.2,0.4,0.3,0.5c0.1,0.2,0.3,0.3,0.4,0.4
		c0.2,0.1,0.3,0.2,0.5,0.3c0.2,0.1,0.4,0.1,0.6,0.2c0.2,0,0.5,0.1,0.7,0.1c0.4,0,0.8,0,1.1-0.1c0.3-0.1,0.6-0.2,0.8-0.4
		c0.2-0.2,0.4-0.4,0.5-0.6c0.1-0.2,0.2-0.5,0.2-0.8c0-0.2,0-0.4-0.1-0.6c-0.1-0.2-0.2-0.3-0.3-0.4c-0.1-0.1-0.2-0.2-0.4-0.3
		s-0.3-0.2-0.4-0.2S64.7,5.1,64.6,5c-0.1,0-0.2-0.1-0.3-0.1c-0.2-0.1-0.4-0.1-0.6-0.2c-0.2-0.1-0.3-0.1-0.4-0.2
		c-0.1,0-0.2-0.1-0.3-0.1c-0.1,0-0.1-0.1-0.2-0.1c0,0-0.1-0.1-0.1-0.1c0,0,0-0.1,0-0.1c0-0.1,0-0.2,0.1-0.2s0.1-0.1,0.2-0.2
		c0.1,0,0.2-0.1,0.2-0.1c0.1,0,0.2,0,0.3,0c0.1,0,0.3,0,0.4,0c0.1,0,0.2,0.1,0.3,0.1s0.2,0.1,0.2,0.2c0.1,0.1,0.1,0.2,0.1,0.4h1.5
		c0-0.3-0.1-0.6-0.2-0.9S65.4,3,65.2,2.9c-0.2-0.2-0.5-0.3-0.8-0.3c-0.3-0.1-0.6-0.1-1-0.1c-0.2,0-0.4,0-0.6,0
		c-0.2,0-0.4,0.1-0.6,0.1s-0.3,0.1-0.5,0.2c-0.2,0.1-0.3,0.2-0.4,0.3c-0.1,0.1-0.2,0.3-0.3,0.4S61,4,61,4.2c0,0.2,0,0.3,0.1,0.5
		c0.1,0.1,0.1,0.3,0.2,0.4c0.1,0.1,0.2,0.2,0.3,0.3s0.3,0.2,0.4,0.2c0.1,0.1,0.3,0.1,0.5,0.2c0.2,0,0.3,0.1,0.5,0.1
		C63.2,6,63.4,6,63.6,6.1c0.2,0.1,0.4,0.1,0.5,0.2c0.2,0.1,0.3,0.1,0.4,0.2c0.1,0.1,0.1,0.2,0.1,0.3c0,0.1,0,0.2-0.1,0.3
		C64.5,7.2,64.4,7.3,64.3,7.3z"/>
	<path class="st0" d="M70.3,8.2c0.4-0.1,0.7-0.3,1-0.6c0.3-0.3,0.4-0.6,0.6-1S72,5.9,72,5.4c0-0.5-0.1-0.9-0.2-1.3
		c-0.1-0.4-0.3-0.6-0.6-0.9c-0.3-0.2-0.6-0.4-1-0.5c-0.4-0.1-0.8-0.2-1.3-0.2h-2.2v5.9h2.2C69.4,8.4,69.9,8.4,70.3,8.2z M68.2,7.3
		V3.7h0.8c0.3,0,0.5,0,0.7,0.1S70,4,70.2,4.2c0.1,0.1,0.2,0.3,0.3,0.6c0.1,0.2,0.1,0.5,0.1,0.8s0,0.5-0.1,0.7
		c-0.1,0.2-0.1,0.4-0.2,0.5C70.1,6.8,70,6.9,69.9,7c-0.1,0.1-0.2,0.1-0.4,0.2s-0.2,0.1-0.3,0.1c-0.1,0-0.2,0-0.3,0H68.2z"/>
	<rect x="72.7" y="7.1" class="st0" width="1.4" height="1.4"/>
</g>
</svg>
