<?xml version="1.0" encoding="utf-8"?>
<!-- Generator: Adobe Illustrator 24.3.0, SVG Export Plug-In . SVG Version: 6.00 Build 0)  -->
<svg version="1.1" id="Layer_1" xmlns="http://www.w3.org/2000/svg" xmlns:xlink="http://www.w3.org/1999/xlink" x="0px" y="0px"
	 viewBox="0 0 50 50" style="enable-background:new 0 0 50 50;" xml:space="preserve">
<style type="text/css">
	.st0{fill:#FF7E00;}
</style>
<g>
	<path class="st0" d="M20.7,18.1h-0.4c-0.4,0-0.7,0.3-0.7,0.7v7.5c0,0.4,0.3,0.7,0.7,0.7h0.4c0.4,0,0.7-0.3,0.7-0.7v-7.5
		C21.4,18.5,21.1,18.1,20.7,18.1z"/>
	<path class="st0" d="M29.3,18.1c-0.3,0-0.5,0.1-0.7,0.3c-0.2,0.2-0.3,0.4-0.3,0.7v3.4c0,0.3-0.4,0.4-0.5,0.2
		c-1-1.4-3.2-4.2-3.3-4.2c-0.2-0.2-0.4-0.3-0.7-0.3c-0.5,0-0.9,0.5-0.9,1v7c0,0.5,0.4,0.9,0.9,1c0.3,0,0.5-0.1,0.7-0.3
		c0.2-0.2,0.3-0.4,0.3-0.7v-3.4c0-0.3,0.4-0.4,0.5-0.2c1.1,1.4,3.3,4.2,3.3,4.3c0.2,0.2,0.4,0.3,0.6,0.3c0.5,0,0.9-0.5,0.9-1v-7
		C30.1,18.6,29.7,18.2,29.3,18.1z"/>
	<path class="st0" d="M17.7,25.2h-2.5c-0.1-0.1-0.2-0.2-0.3-0.3v-5.8c0-0.5-0.4-0.9-0.9-1c-0.3,0-0.5,0.1-0.7,0.3
		c-0.2,0.2-0.3,0.4-0.3,0.7v6.8c0,0.7,0.6,1.2,1.2,1.2h3.4c0.5,0,0.9-0.4,1-0.9c0-0.3-0.1-0.5-0.3-0.7C18.2,25.3,18,25.2,17.7,25.2z
		"/>
	<path class="st0" d="M36.2,20c0.6,0,1-0.5,0.9-1.1c-0.1-0.5-0.5-0.8-1-0.8h-3.4c-0.7,0-1.2,0.6-1.2,1.2v6.5c0,0.7,0.6,1.2,1.2,1.2
		h3.4c0.5,0,0.9-0.4,1-0.9c0-0.3-0.1-0.5-0.3-0.7s-0.4-0.3-0.7-0.3h-2.5c-0.1-0.1-0.2-0.2-0.3-0.3v-1.1c0.1-0.1,0.2-0.2,0.3-0.3h2.5
		c0.5,0,0.9-0.4,1-0.9c0-0.3-0.1-0.5-0.3-0.7s-0.4-0.3-0.7-0.3h-2.5c-0.1-0.1-0.2-0.2-0.3-0.3v-1.1c0.1-0.1,0.2-0.2,0.3-0.3h2.6V20z
		"/>
	<path class="st0" d="M0,2.7v44.5C0,48.8,1.2,50,2.7,50h44.5c1.5,0,2.7-1.2,2.7-2.7V2.7C50,1.2,48.8,0,47.3,0H2.7C1.2,0,0,1.2,0,2.7
		z M43.3,23c0,0.3-0.1,0.7-0.1,1.1c-0.2,1.4-0.7,2.8-1.4,4c-0.3,0.6-1.9,2.8-2.4,3.4c-2.6,3.2-7,6.9-14.3,10.4
		c-0.9,0.5-2-0.3-1.9-1.3l0.3-2.6c0.1-0.7-0.4-1.3-1.1-1.4c-8.8-1-15.6-7.1-15.6-14.4c0-8,8.2-14.6,18.3-14.6
		c9.8,0,17.8,6.2,18.3,13.9C43.3,21.8,43.3,22.5,43.3,23z"/>
</g>
</svg>
