<?xml version="1.0" encoding="utf-8"?>
<!-- Generator: Adobe Illustrator 24.3.0, SVG Export Plug-In . SVG Version: 6.00 Build 0)  -->
<svg version="1.1" id="Layer_1" xmlns="http://www.w3.org/2000/svg" xmlns:xlink="http://www.w3.org/1999/xlink" x="0px" y="0px"
	 viewBox="0 0 50 50" style="enable-background:new 0 0 50 50;" xml:space="preserve">
<style type="text/css">
	.st0{fill:#FFFFFF;}
</style>
<g>
	<path class="st0" d="M47.4,36.8c-1.3,2.5-3.2,4.7-5.3,6.6C36.9,48,30.8,50.3,23.9,50C14.9,49.6,8,45.4,3,38
		c-0.5-0.7-0.5-1.4-0.1-2.2c2.5-4.9,6.6-7.9,12-8.8c0.7-0.1,1.4,0,2,0.4c5.3,3.5,10.7,3.5,16.1,0.1c0.6-0.4,1.2-0.6,1.9-0.5
		c5.7,1,9.8,4,12.3,9.2C47.2,36.3,47.3,36.5,47.4,36.8z"/>
	<path class="st0" d="M37.9,12.9c0,7.2-5.9,13.1-13,13c-7,0-12.9-5.9-13-13c0-7.1,5.8-13,13.1-13C32.1,0,37.9,5.8,37.9,12.9z"/>
</g>
</svg>
