<?xml version="1.0" encoding="utf-8"?>
<!-- Generator: Adobe Illustrator 24.3.0, SVG Export Plug-In . SVG Version: 6.00 Build 0)  -->
<svg version="1.1" id="Layer_1" xmlns="http://www.w3.org/2000/svg" xmlns:xlink="http://www.w3.org/1999/xlink" x="0px" y="0px"
	 viewBox="0 0 50 50" style="enable-background:new 0 0 50 50;" xml:space="preserve">
<style type="text/css">
	.st0{fill:#676767;}
	.st1{fill:#FFFFFF;}
	.st2{fill-rule:evenodd;clip-rule:evenodd;fill:#FF7E00;}
	.st3{fill:#FF7E00;}
	.st4{fill:#75CA54;}
	.st5{fill:#666666;}
</style>
<g>
	<path class="st5" d="M38.4,48.6L38.4,48.6H11.7c0,0,0,0-0.1,0c-0.4,0-0.7,0.3-0.7,0.7c0,0.4,0.3,0.7,0.7,0.7h26.7
		c0.4,0,0.7-0.3,0.7-0.7C39.1,48.9,38.8,48.6,38.4,48.6z"/>
	<path class="st5" d="M41.5,27.6H8.6c-0.9,0-1.6,0.7-1.6,1.6l1.6,16.9c0,0.9,0.7,1.6,1.6,1.6h29.6c0.9,0,1.6-0.7,1.6-1.6l1.6-16.9
		C43.1,28.4,42.4,27.6,41.5,27.6z M25,39.1c-0.8,0-1.4-0.6-1.4-1.4s0.6-1.4,1.4-1.4s1.4,0.6,1.4,1.4C26.5,38.5,25.8,39.1,25,39.1z"
		/>
	<path class="st5" d="M39.7,27.2c0-4.3-2.8-6.5-6.6-7.7c1.6,0.2,3.1,0.5,3.1,0.5c-3.2-1.8-3.1-8.2-3.1-8.2C33.5-0.6,25.3,0,25.3,0
		l0,0l0,0c0,0-8.2-0.6-7.6,11.7c0,0,0.1,6.4-3.2,8.2c0,0,0.9-0.1,2-0.1c-3.3,1.5-5.6,3.5-5.6,7.3 M31.7,9.6c0,0.3-0.1,0.6-0.1,0.9
		c-0.1,1.6-0.5,3.1-1.2,4.4c-1.2,2.3-3,3.8-5.1,3.8c-3.2,0-5.8-3.5-6.3-8c0,0,2.6-0.4,4-1c0,0,2.8-0.9,6.1-3.3c0,0,0.1,0,0.1-0.1
		 M27.5,22l-2.2,3.6L23.1,22c-1.6-0.4-2.8-1.1-3.3-2c1.3,0.1,2.4,0.4,2.7,0.8l-1.2-2.7c1.2,1.2,2.6,1.9,4.1,1.9c1.5,0,2.9-0.6,4-1.8
		l-0.9,1.8c0.3-0.5,1.3-0.6,2.6-0.6C30.8,20.6,29.4,21.5,27.5,22z"/>
</g>
</svg>
