<?xml version="1.0" encoding="utf-8"?>
<!-- Generator: Adobe Illustrator 24.3.0, SVG Export Plug-In . SVG Version: 6.00 Build 0)  -->
<svg version="1.1" id="Layer_1" xmlns="http://www.w3.org/2000/svg" xmlns:xlink="http://www.w3.org/1999/xlink" x="0px" y="0px"
	 viewBox="0 0 50 50" style="enable-background:new 0 0 50 50;" xml:space="preserve">
<g>
	<path d="M20.3,3.6c3.4,0,6.7,1,9.5,2.8c2.8,1.8,5,4.5,6.3,7.6c1.3,3.1,1.6,6.5,1,9.7c-0.7,3.3-2.3,6.3-4.7,8.6
		c-2.4,2.4-5.4,4-8.8,4.6c-3.3,0.7-6.8,0.3-9.9-1c-3.1-1.3-5.8-3.4-7.7-6.2c-1.9-2.8-2.9-6-2.9-9.4c0-4.5,1.8-8.7,5-11.9
		C11.5,5.4,15.8,3.6,20.3,3.6z M20.3,0.4c-4,0-8,1.2-11.3,3.4c-3.3,2.2-6,5.3-7.5,9C0,16.4-0.4,20.5,0.4,24.3S3.1,31.8,6,34.6
		c2.8,2.8,6.5,4.7,10.4,5.5c3.9,0.8,8,0.4,11.8-1.1c3.7-1.5,6.9-4.1,9.1-7.4c2.2-3.3,3.4-7.2,3.4-11.1c0-5.3-2.1-10.4-6-14.1
		C30.9,2.5,25.7,0.4,20.3,0.4z"/>
	<path d="M49.5,47L38,35.6l-2.2,2.2l11.5,11.4c0.1,0.1,0.3,0.3,0.5,0.3c0.2,0.1,0.4,0.1,0.6,0.1c0.2,0,0.4,0,0.6-0.1
		c0.2-0.1,0.4-0.2,0.5-0.3c0.1-0.1,0.3-0.3,0.3-0.5c0.1-0.2,0.1-0.4,0.1-0.6c0-0.2,0-0.4-0.1-0.6S49.7,47.2,49.5,47z"/>
</g>
</svg>
