<?xml version="1.0" encoding="utf-8"?>
<!-- Generator: Adobe Illustrator 24.3.0, SVG Export Plug-In . SVG Version: 6.00 Build 0)  -->
<svg version="1.1" id="Layer_1" xmlns="http://www.w3.org/2000/svg" xmlns:xlink="http://www.w3.org/1999/xlink" x="0px" y="0px"
	 viewBox="0 0 50 50" style="enable-background:new 0 0 50 50;" xml:space="preserve">
<style type="text/css">
	.st0{fill:#FFFFFF;}
</style>
<path class="st0" d="M17.3,26.2c0,1-0.8,1.8-1.8,1.8s-1.8-0.8-1.8-1.8s0.8-1.8,1.8-1.8S17.3,25.1,17.3,26.2z M15.5,13.3
	c-1,0-1.8,0.8-1.8,1.8s0.8,1.8,1.8,1.8s1.8-0.8,1.8-1.8C17.3,14,16.5,13.3,15.5,13.3z M15.5,18.8c-1,0-1.8,0.8-1.8,1.8
	s0.8,1.8,1.8,1.8s1.8-0.8,1.8-1.8C17.3,19.6,16.5,18.8,15.5,18.8z M21.1,28c1,0,1.8-0.8,1.8-1.8s-0.8-1.8-1.8-1.8s-1.8,0.8-1.8,1.8
	C19.3,27.1,20,28,21.1,28z M21.1,16.9c1,0,1.8-0.8,1.8-1.8s-0.8-1.8-1.8-1.8s-1.8,0.8-1.8,1.8S20,16.9,21.1,16.9z M21.1,22.4
	c1,0,1.8-0.8,1.8-1.8s-0.8-1.8-1.8-1.8s-1.8,0.8-1.8,1.8C19.3,21.6,20,22.4,21.1,22.4z M26.6,28c1,0,1.8-0.8,1.8-1.8
	s-0.8-1.8-1.8-1.8s-1.8,0.8-1.8,1.8C24.8,27.1,25.6,28,26.6,28z M26.6,16.9c1,0,1.8-0.8,1.8-1.8s-0.8-1.8-1.8-1.8s-1.8,0.8-1.8,1.8
	S25.6,16.9,26.6,16.9z M26.6,22.4c1,0,1.8-0.8,1.8-1.8s-0.8-1.8-1.8-1.8s-1.8,0.8-1.8,1.8C24.8,21.6,25.6,22.4,26.6,22.4z
	 M41.8,32.2c-0.5,0.5-1.4,7.2-1.9,11.7l-0.5,5.7c0,0.2-0.2,0.4-0.4,0.4h-8.9c-0.2,0-0.4-0.2-0.4-0.4v-1.9v-1.2v-0.3
	c-0.4-0.5-0.8-0.9-1.1-1.4H12.8C10.1,44.8,8,42.7,8,40V4.8C8,2.2,10.1,0,12.8,0h16.5c2.7,0,4.8,2.2,4.8,4.8v4.1v12.5
	c1.7,1.2,6.3,6.4,6.8,6.8C42.6,29.5,41.8,32.2,41.8,32.2z M24.8,38.3L20.2,34c-2-2.2-1-3.7-1-3.7c0.6-0.6,1.4-0.6,2.2-0.3
	c0.2,0.1,0.4,0.1,0.6,0.2c1.8,0.8,3.7,2.5,3.7,2.5s3.9,2.5,6,2.4v-2.4v-2.5V8.9V8V7.8c0-0.7-0.6-1.2-1.2-1.2H11.8
	c-0.7,0-1.2,0.6-1.2,1.2V37c0,0.7,0.6,1.2,1.2,1.2L24.8,38.3L24.8,38.3z M24.4,41.6c0-0.7-0.6-1.2-1.2-1.2h-4.7
	c-0.7,0-1.2,0.6-1.2,1.2c0,0.7,0.6,1.2,1.2,1.2h4.6C23.8,42.8,24.4,42.2,24.4,41.6z"/>
</svg>
