<?xml version="1.0" encoding="utf-8"?>
<!-- Generator: Adobe Illustrator 24.3.0, SVG Export Plug-In . SVG Version: 6.00 Build 0)  -->
<svg version="1.1" id="Layer_1" xmlns="http://www.w3.org/2000/svg" xmlns:xlink="http://www.w3.org/1999/xlink" x="0px" y="0px"
	 viewBox="0 0 50 50" style="enable-background:new 0 0 50 50;" xml:space="preserve">
<style type="text/css">
	.st0{fill:#FFFFFF;}
</style>
<path class="st0" d="M25,0C11.2,0,0,11.2,0,25c0,13.3,10.4,24.2,23.6,25c0-6.1,0-12.1,0-18.3c-1.7,0-3.3,0-5,0c0-2.3,0-4.4,0-6.6
	c1.6-0.1,3.2-0.1,4.9-0.1c0-1.8,0-3.4,0-5.2c0-2.1,0.4-4.1,1.7-5.7c1.5-1.9,3.5-2.8,5.9-3.1c2.1-0.3,4.3-0.1,6.4,0
	c0.3,0,0.5,0.1,0.5,0.5c-0.1,1.9-0.2,3.8-0.2,5.8c-1.5,0-2.9,0-4.3,0c-0.5,0-0.9,0-1.3,0.2c-0.8,0.2-1.3,0.7-1.4,1.5
	c-0.2,2-0.1,4-0.1,6.1c2.5,0,4.9,0,7.4,0c-0.1,2.2-0.2,4.4-0.3,6.6c-2.3,0-4.6,0-7,0c0,6,0,11.8,0,17.7C41.8,46.7,50,36.8,50,25
	C50,11.2,38.8,0,25,0z"/>
</svg>
