<?xml version="1.0" encoding="utf-8"?>
<!-- Generator: Adobe Illustrator 24.3.0, SVG Export Plug-In . SVG Version: 6.00 Build 0)  -->
<svg version="1.1" id="Layer_1" xmlns="http://www.w3.org/2000/svg" xmlns:xlink="http://www.w3.org/1999/xlink" x="0px" y="0px"
	 viewBox="0 0 50 50" style="enable-background:new 0 0 50 50;" xml:space="preserve">
<style type="text/css">
	.st0{fill:#676767;}
	.st1{fill:#FFFFFF;}
	.st2{fill-rule:evenodd;clip-rule:evenodd;fill:#FF7E00;}
	.st3{fill:#FF7E00;}
	.st4{fill:#75CA54;}
	.st5{fill:#666666;}
</style>
<path class="st5" d="M42.2,21.5l4.2,6l3.6-6.1l-1.3-0.8l-1.6,2.7c-0.8-12.2-11-21.9-23.4-21.9C10.8,1.6,0.3,12.1,0.3,25
	s10.5,23.4,23.4,23.4c7.5,0,14.5-3.6,18.9-9.6l-1.2-0.9c-4.1,5.6-10.7,9-17.7,9c-12.1,0-22-9.9-22-22s9.9-22,22-22
	C35.4,3,45,12.2,45.6,23.7l-2.1-3.2L42.2,21.5z"/>
<g>
	<path class="st5" d="M37.9,24.5h3.6c-0.4-9.2-7.8-16.6-17-17v3.6h-1.7V7.5c-9.1,0.4-16.5,7.8-17,16.9h3.6v1.7H5.9
		c0.4,9.2,7.8,16.6,16.9,17v-3.6h1.7v3.6c9.2-0.4,16.6-7.8,17.1-17h-3.6V24.5L37.9,24.5z M33.5,26.2H22.8V14.9h1.7v9.6h9V26.2z"/>
</g>
</svg>
