<?xml version="1.0" encoding="utf-8"?>
<!-- Generator: Adobe Illustrator 24.3.0, SVG Export Plug-In . SVG Version: 6.00 Build 0)  -->
<svg version="1.1" id="Layer_1" xmlns="http://www.w3.org/2000/svg" xmlns:xlink="http://www.w3.org/1999/xlink" x="0px" y="0px"
	 viewBox="0 0 50 50" style="enable-background:new 0 0 50 50;" xml:space="preserve">
<style type="text/css">
	.st0{fill:#676767;}
	.st1{fill:#FFFFFF;}
	.st2{fill-rule:evenodd;clip-rule:evenodd;fill:#FF7E00;}
	.st3{fill:#FF7E00;}
	.st4{fill:#75CA54;}
	.st5{fill:#666666;}
</style>
<path class="st5" d="M23.2,27.4c2.1-2.1,4.9-3.2,7.9-3.2c1.4,0,2.7,0.2,4,0.7V7.2L9.3,10.3c-0.3,0-0.7,0-0.9-0.1
	C8.3,10.1,8.2,10,8.2,10L7.7,5.9c0-0.1,0.3-0.5,1-0.6l24.5-3L32.9,0L8.4,3c-1.8,0.2-3.1,1.6-3,3l0,0v29.2c0,0,0.3,1.1,0.5,2
	c0.2,0.7,0.6,1.5,1.4,1.9c0.5,0.3,1.1,0.4,1.8,0.4c0.2,0,0.3,0,0.5,0l10.7-1.4c-0.2-0.9-0.4-1.9-0.4-2.8
	C20,32.4,21.1,29.6,23.2,27.4z M13.3,14.8l16.1-2v6l-16.1,2C13.3,20.8,13.3,14.8,13.3,14.8z"/>
<path class="st5" d="M45.4,46.5L39,40.1c2.2-3.5,1.7-8.2-1.4-11.4c-3.6-3.6-9.5-3.6-13.1,0s-3.6,9.5,0,13.1c3,3,7.8,3.5,11.4,1.4
	l6.4,6.4c0.5,0.5,1.5,0.5,2,0l1.1-1.1C45.9,47.9,45.9,47,45.4,46.5z M36.5,40.7c-3,3-7.8,3-10.8,0c-3-3-3-7.8,0-10.8
	c3-3,7.8-3,10.8,0C39.6,32.9,39.6,37.7,36.5,40.7z"/>
<path class="st5" d="M31.5,30c-1.7,0-2.9,0.7-3.3,1c-1,0.8-0.1,1.8,0.6,1.6c0.4-0.2,2.1-1.4,2.8-0.4c0.9,1.3-1.3,2.1-1.3,3.3
	c0,0.7,0.4,1.3,0.7,1.4c0.3-1.1,2.1-1.5,3-2.9c0.3-0.4,0.3-0.8,0.3-1.4c0-0.2,0-0.4-0.1-0.6C34,30.7,33.1,30,31.5,30z"/>
<circle class="st5" cx="31.1" cy="39.2" r="1.5"/>
</svg>
