<?xml version="1.0" encoding="utf-8"?>
<!-- Generator: Adobe Illustrator 24.3.0, SVG Export Plug-In . SVG Version: 6.00 Build 0)  -->
<svg version="1.1" id="Layer_1" xmlns="http://www.w3.org/2000/svg" xmlns:xlink="http://www.w3.org/1999/xlink" x="0px" y="0px"
	 viewBox="0 0 50 50" style="enable-background:new 0 0 50 50;" xml:space="preserve">
<style type="text/css">
	.st0{fill:#676767;}
	.st1{fill:#FFFFFF;}
	.st2{fill-rule:evenodd;clip-rule:evenodd;fill:#FF7E00;}
	.st3{fill:#FF7E00;}
	.st4{fill:#75CA54;}
	.st5{fill:#666666;}
</style>
<g>
	<g>
		<g>
			<path class="st1" d="M35.2,37.6L47,49.5c0.3,0.3,0.8,0.5,1.2,0.5s0.9-0.2,1.2-0.5c0.7-0.7,0.7-1.8,0-2.5L37.6,35.2
				c3.2-3.7,5.1-8.5,5.1-13.8C42.7,9.6,33.1,0,21.4,0S0,9.6,0,21.4s9.6,21.4,21.4,21.4C26.6,42.7,31.4,40.8,35.2,37.6z M3.5,21.4
				c0-9.9,8-17.9,17.9-17.9s17.9,8,17.9,17.9s-8,17.9-17.9,17.9S3.5,31.2,3.5,21.4z"/>
		</g>
	</g>
</g>
</svg>
