<?xml version="1.0" encoding="utf-8"?>
<!-- Generator: Adobe Illustrator 24.3.0, SVG Export Plug-In . SVG Version: 6.00 Build 0)  -->
<svg version="1.1" id="Layer_1" xmlns="http://www.w3.org/2000/svg" xmlns:xlink="http://www.w3.org/1999/xlink" x="0px" y="0px"
	 viewBox="0 0 50 50" style="enable-background:new 0 0 50 50;" xml:space="preserve">
<style type="text/css">
	.st0{fill:#FFFFFF;}
</style>
<path class="st0" d="M49,16.2c-1.9-5.3-5.8-9-10.7-11.5C32.7,1.8,26.8,1,20.6,1.9c-6.4,1-11.9,3.6-16.2,8.5
	c-5,5.7-5.8,13.6-1.9,20.1c3.4,5.7,8.7,8.9,15,10.6c1.3,0.4,2.7,0.5,4.1,0.9s1.7,0.9,1.7,2.3c0,1-0.2,2-0.4,3
	c-0.1,0.6-0.3,1.2,0.2,1.8c0.6,0.3,1.2,0.1,1.8-0.2c1.3-0.5,2.4-1.2,3.6-1.9c6.1-4,12.2-8,16.9-13.6C49.7,28.3,51.2,22.6,49,16.2z
	 M16.5,27.2c-0.1,1-0.8,1.2-1.7,1.2c-1.5,0-2.9,0-4.4,0c-1.1,0-1.5-0.5-1.5-1.6c0-3.1,0-6.3,0-9.4c0-1,0.5-1.6,1.4-1.5
	c1,0.1,1.2,0.7,1.2,1.5c0,2.7,0,5.5,0,8.3c1.2,0,2.3,0,3.3,0C15.9,25.9,16.6,26.5,16.5,27.2z M20.4,26.7c0,1.2-0.5,1.8-1.4,1.7
	c-1-0.1-1.3-0.8-1.3-1.8c0-1.5,0-3.1,0-4.6s0-3,0-4.5c0-1.1,0.5-1.7,1.3-1.7c0.9,0,1.3,0.5,1.3,1.7C20.4,20.7,20.4,23.7,20.4,26.7z
	 M31.4,28.4c-0.8,0.2-1.3-0.1-1.7-0.7c-1.5-2.1-3.1-4.2-4.8-6.2c0,1.6,0,3.1,0,4.7c0,0.4,0,0.9-0.1,1.3c-0.1,0.6-0.6,1-1.2,1
	c-0.7,0-1.1-0.3-1.3-0.9c-0.1-0.2-0.1-0.4-0.1-0.6c0-3.1,0-6.3,0-9.4c0-0.7,0.2-1.2,0.9-1.5c0.7-0.2,1.2,0.1,1.7,0.6
	c1.6,2.1,3.2,4.3,4.9,6.7c0-2.1,0-3.9,0-5.7c0-1.1,0.4-1.7,1.3-1.7s1.3,0.5,1.3,1.7c0,3.1,0,6.1,0,9.2
	C32.3,27.5,32.2,28.1,31.4,28.4z M41.6,27.4c-0.1,0.6-0.5,1-1.1,1c-1.8,0-3.6,0-5.3,0c-0.8,0-1.1-0.6-1.1-1.3c0-3.3,0-6.5,0-9.8
	c0-0.9,0.5-1.3,1.3-1.3c1.6,0,3.2,0,4.8,0c0.8,0,1.3,0.4,1.3,1.2s-0.5,1.3-1.3,1.4c-1.1,0-2.3,0-3.5,0c0,0.8,0,1.5,0,2.4
	c1.1,0,2.2,0,3.3,0c0.9,0,1.5,0.3,1.6,1.3c0,0.8-0.5,1.3-1.6,1.3s-2.2,0-3.3,0c0,0.8,0,1.5,0,2.3c1,0.2,2,0.1,3.1,0.1
	c0.4,0,0.8,0,1.1,0.2C41.5,26.3,41.7,26.8,41.6,27.4z"/>
</svg>
